M48
; DRILL file {KiCad 9.0.0} date 2025-05-28T12:26:21+0700
; FORMAT={-:-/ absolute / metric / decimal}
; #@! TF.CreationDate,2025-05-28T12:26:21+07:00
; #@! TF.GenerationSoftware,Kicad,Pcbnew,9.0.0
; #@! TF.FileFunction,Plated,1,2,PTH
FMAT,2
METRIC
; #@! TA.AperFunction,Plated,PTH,ViaDrill
T1C0.300
; #@! TA.AperFunction,Plated,PTH,ComponentDrill
T2C0.700
; #@! TA.AperFunction,Plated,PTH,ComponentDrill
T3C0.750
; #@! TA.AperFunction,Plated,PTH,ComponentDrill
T4C0.800
; #@! TA.AperFunction,Plated,PTH,ComponentDrill
T5C0.900
; #@! TA.AperFunction,Plated,PTH,ComponentDrill
T6C1.100
; #@! TA.AperFunction,Plated,PTH,ComponentDrill
T7C1.143
; #@! TA.AperFunction,Plated,PTH,ComponentDrill
T8C1.200
; #@! TA.AperFunction,Plated,PTH,ComponentDrill
T9C1.300
; #@! TA.AperFunction,Plated,PTH,ComponentDrill
T10C1.500
; #@! TA.AperFunction,Plated,PTH,ViaDrill
T11C2.000
%
G90
G05
T1
X435.894Y-354.698
X436.949Y-328.643
X436.949Y-344.298
X438.2Y-377.0
X439.489Y-330.103
X439.489Y-344.993
X440.0Y-243.8
X440.42Y-227.42
X440.759Y-352.363
X440.919Y-358.003
X442.029Y-330.033
X442.029Y-350.633
X443.035Y-250.69
X443.299Y-330.093
X443.9Y-262.9
X444.2Y-243.8
X444.4Y-310.2
X444.619Y-361.503
X444.7Y-248.15
X444.931Y-226.0
X444.95Y-240.75
X445.839Y-328.643
X445.839Y-344.298
X447.14Y-251.21
X447.25Y-325.95
X447.294Y-353.098
X447.371Y-229.06
X447.55Y-319.85
X447.9Y-379.2
X449.144Y-362.303
X450.719Y-366.503
X451.675Y-259.15
X451.906Y-237.0
X451.929Y-309.55
X452.1Y-324.75
X453.794Y-356.298
X456.087Y-259.15
X456.319Y-237.0
X456.694Y-351.098
X457.45Y-253.4
X457.494Y-309.978
X457.681Y-231.25
X458.544Y-362.303
X460.4Y-380.6
X460.819Y-368.103
X462.019Y-359.703
X469.345Y-328.623
X469.345Y-344.278
X469.419Y-356.298
X471.853Y-362.722
X471.885Y-330.083
X471.885Y-344.973
X473.155Y-352.343
X473.269Y-358.003
X474.425Y-330.013
X474.425Y-350.613
X475.695Y-330.073
X476.771Y-310.25
X477.219Y-361.503
X478.235Y-328.623
X478.235Y-344.278
X479.646Y-325.93
X479.69Y-353.078
X479.946Y-319.83
X482.4Y-362.4
X484.319Y-309.6
X484.496Y-324.73
X484.6Y-365.744
X485.619Y-387.941
X486.725Y-356.298
X487.819Y-393.503
X489.09Y-351.078
X489.89Y-309.958
X490.95Y-362.303
X492.366Y-365.744
X492.419Y-368.103
X492.421Y-366.543
X492.819Y-395.803
X494.419Y-359.703
X495.019Y-383.303
X501.755Y-328.598
X501.755Y-344.253
X501.819Y-356.298
X502.219Y-365.703
X502.219Y-366.503
X502.219Y-367.303
X502.219Y-368.103
X502.737Y-362.462
X504.295Y-330.058
X504.295Y-344.948
X504.819Y-369.275
X505.519Y-358.003
X505.565Y-352.318
X506.219Y-380.503
X506.835Y-329.988
X506.835Y-350.588
X508.105Y-330.048
X509.221Y-310.2
X510.019Y-361.503
X510.645Y-328.598
X510.645Y-344.253
X512.056Y-325.905
X512.1Y-353.053
X512.356Y-319.805
X513.95Y-362.303
X514.019Y-367.303
X514.019Y-368.103
X516.019Y-365.703
X516.722Y-309.57
X516.906Y-324.705
X517.419Y-380.503
X518.419Y-356.298
X521.5Y-351.053
X522.3Y-309.933
X523.35Y-362.303
X523.619Y-380.503
X526.819Y-359.703
X528.419Y-368.703
X528.819Y-380.503
X529.719Y-368.603
X531.219Y-368.503
X534.155Y-328.573
X534.155Y-344.228
X534.219Y-356.298
X534.561Y-362.961
X535.019Y-380.503
X536.695Y-330.033
X536.695Y-344.923
X537.965Y-352.293
X538.019Y-358.003
X539.219Y-388.941
X539.235Y-329.963
X539.235Y-350.563
X540.505Y-330.023
X541.571Y-310.2
X542.019Y-361.503
X543.045Y-328.573
X543.045Y-344.228
X543.219Y-394.703
X544.456Y-325.88
X544.5Y-353.028
X544.756Y-319.78
X544.819Y-365.703
X545.781Y-387.941
X546.35Y-362.503
X549.122Y-309.545
X549.306Y-324.68
X550.8Y-356.298
X553.9Y-351.028
X554.219Y-395.703
X554.7Y-309.908
X554.819Y-383.303
X555.019Y-368.503
X555.75Y-362.303
X559.219Y-359.703
X561.819Y-381.503
X564.769Y-391.053
X565.919Y-386.203
X566.475Y-356.298
X566.555Y-328.573
X566.555Y-344.228
X566.619Y-375.103
X568.129Y-395.203
X569.095Y-330.033
X569.095Y-344.923
X570.365Y-352.293
X570.519Y-358.003
X571.635Y-329.963
X571.635Y-350.563
X572.905Y-330.023
X574.021Y-310.2
X574.419Y-361.503
X575.445Y-328.573
X575.445Y-344.228
X576.019Y-366.903
X576.856Y-325.88
X576.9Y-353.028
X577.156Y-319.78
X578.75Y-362.503
X581.547Y-309.545
X581.706Y-324.68
X583.525Y-356.298
X585.619Y-369.303
X586.3Y-351.028
X587.1Y-309.908
X588.15Y-362.303
X591.619Y-359.703
X598.955Y-328.548
X598.955Y-344.203
X599.019Y-356.298
X601.495Y-330.008
X601.495Y-344.898
X602.765Y-352.268
X602.769Y-358.003
X603.619Y-361.503
X604.035Y-329.938
X604.035Y-350.538
X605.305Y-329.998
X606.371Y-310.15
X607.845Y-328.548
X607.845Y-344.203
X609.256Y-325.855
X609.3Y-353.003
X609.556Y-319.755
X613.525Y-356.298
X613.922Y-309.525
X614.106Y-324.655
X614.419Y-362.303
X615.869Y-386.453
X618.7Y-351.003
X619.5Y-309.883
X622.769Y-359.703
T2
X448.6Y-370.6
X453.0Y-370.6
X457.2Y-370.6
X475.8Y-370.6
X480.6Y-370.6
X485.0Y-370.6
X507.2Y-370.6
X511.6Y-370.6
X515.4Y-370.6
X540.875Y-373.0
X545.5Y-373.0
X549.5Y-373.0
X571.5Y-363.0
X576.5Y-363.0
X581.5Y-363.0
X594.8Y-399.4
X598.6Y-402.8
X602.5Y-364.5
X608.5Y-364.5
X617.0Y-364.5
T3
X454.275Y-250.185
X454.275Y-251.455
X454.275Y-252.725
X454.506Y-228.035
X454.506Y-229.305
X454.506Y-230.575
T4
X582.836Y-391.203
X584.054Y-383.703
X586.554Y-383.703
X587.836Y-391.203
X591.036Y-391.203
X592.519Y-383.703
X595.019Y-383.703
X596.036Y-391.203
X599.719Y-391.203
X601.219Y-383.703
X603.719Y-383.703
X604.719Y-391.203
X607.619Y-391.203
X608.719Y-383.703
X611.219Y-383.703
X612.619Y-391.203
T5
X469.13Y-377.0
X469.46Y-383.6
X471.67Y-377.0
X472.0Y-383.6
X574.409Y-375.203
X574.409Y-381.403
X574.479Y-388.203
X576.949Y-375.203
X576.949Y-381.403
X577.019Y-388.203
X622.019Y-375.203
X622.019Y-381.403
X622.019Y-388.203
X624.559Y-375.203
X624.559Y-381.403
X624.559Y-388.203
T6
X483.43Y-229.84
X483.43Y-232.38
X483.43Y-234.92
X483.43Y-237.46
X483.43Y-240.0
X483.43Y-258.54
X483.43Y-261.08
X483.43Y-263.62
X483.43Y-266.16
X483.43Y-268.7
X492.32Y-229.84
X492.32Y-232.38
X492.32Y-234.92
X492.32Y-237.46
X492.32Y-240.0
X492.32Y-258.54
X492.32Y-261.08
X492.32Y-263.62
X492.32Y-266.16
X492.32Y-268.7
X587.036Y-375.703
X589.576Y-375.703
X592.116Y-375.703
X604.019Y-375.703
X606.559Y-375.703
X609.099Y-375.703
T7
X452.194Y-328.518
X452.194Y-331.058
X452.194Y-333.598
X452.194Y-341.218
X452.194Y-343.758
X484.59Y-328.498
X484.59Y-331.038
X484.59Y-333.578
X484.59Y-341.198
X484.59Y-343.738
X517.0Y-328.473
X517.0Y-331.013
X517.0Y-333.553
X517.0Y-341.173
X517.0Y-343.713
X549.4Y-328.448
X549.4Y-330.988
X549.4Y-333.528
X549.4Y-341.148
X549.4Y-343.688
X581.8Y-328.448
X581.8Y-330.988
X581.8Y-333.528
X581.8Y-341.148
X581.8Y-343.688
X614.2Y-328.423
X614.2Y-330.963
X614.2Y-333.503
X614.2Y-341.123
X614.2Y-343.663
T8
X472.0Y-227.3
X472.0Y-234.92
X472.0Y-242.54
X472.0Y-256.0
X472.0Y-263.62
X472.0Y-271.24
X564.75Y-213.0
X564.75Y-240.5
X564.75Y-245.75
X564.75Y-273.25
X582.25Y-213.0
X582.25Y-240.5
X582.25Y-245.75
X582.25Y-273.25
X599.75Y-213.0
X599.75Y-240.5
X599.75Y-245.75
X599.75Y-273.25
X617.25Y-213.0
X617.25Y-240.5
X617.25Y-245.7
X617.25Y-273.2
T9
X440.58Y-216.25
X445.58Y-216.25
X447.115Y-402.703
X450.58Y-216.25
X452.115Y-402.703
X457.115Y-402.703
X484.856Y-402.703
X489.856Y-402.703
X494.856Y-402.703
X499.856Y-402.703
X504.856Y-402.703
X506.72Y-220.8
X509.856Y-402.703
X514.34Y-220.8
X514.856Y-402.703
X521.96Y-220.8
X529.58Y-220.8
X537.2Y-220.8
X544.82Y-220.8
X551.019Y-402.703
X552.44Y-220.8
X556.019Y-402.703
X561.019Y-402.703
X581.519Y-402.703
X586.519Y-402.703
T10
X441.769Y-304.703
X446.849Y-304.703
X449.389Y-304.703
X451.929Y-304.703
X474.159Y-304.703
X479.239Y-304.703
X481.779Y-304.703
X484.319Y-304.703
X506.549Y-304.703
X511.629Y-304.703
X514.169Y-304.703
X516.709Y-304.703
X538.939Y-304.703
X544.019Y-304.703
X546.559Y-304.703
X549.099Y-304.703
X571.329Y-304.703
X576.409Y-304.703
X578.949Y-304.703
X581.489Y-304.703
X603.719Y-304.703
X608.799Y-304.703
X611.339Y-304.703
X613.879Y-304.703
T11
X493.4Y-281.6
X496.9Y-295.4
X526.9Y-289.4
X547.05Y-271.49
X556.45Y-295.299
X579.0Y-258.0
X592.55Y-289.35
X619.0Y-258.0
M30
