M48
; DRILL file {KiCad 9.0.0} date 2026-02-06T17:51:48+0700
; FORMAT={-:-/ absolute / metric / decimal}
; #@! TF.CreationDate,2026-02-06T17:51:48+07:00
; #@! TF.GenerationSoftware,Kicad,Pcbnew,9.0.0
; #@! TF.FileFunction,NonPlated,1,2,NPTH
FMAT,2
METRIC
; #@! TA.AperFunction,NonPlated,NPTH,ComponentDrill
T1C3.200
%
G90
G05
T1
X137.5Y-121.25
X137.5Y-133.5
X137.75Y-72.5
X137.75Y-97.5
X138.0Y-89.5
X138.0Y-113.5
X153.1Y-63.805
X153.6Y-40.805
X179.75Y-121.25
X179.75Y-133.5
X187.25Y-121.25
X187.5Y-133.5
X216.1Y-40.805
X216.1Y-63.805
X229.75Y-88.75
X229.75Y-113.75
X230.0Y-72.75
X230.0Y-97.75
X230.25Y-121.75
X230.25Y-132.75
M30
