%TF.GenerationSoftware,KiCad,Pcbnew,9.0.0*%
%TF.CreationDate,2026-02-06T17:51:46+07:00*%
%TF.ProjectId,tranfer_logic,7472616e-6665-4725-9f6c-6f6769632e6b,rev?*%
%TF.SameCoordinates,Original*%
%TF.FileFunction,Soldermask,Top*%
%TF.FilePolarity,Negative*%
%FSLAX46Y46*%
G04 Gerber Fmt 4.6, Leading zero omitted, Abs format (unit mm)*
G04 Created by KiCad (PCBNEW 9.0.0) date 2026-02-06 17:51:46*
%MOMM*%
%LPD*%
G01*
G04 APERTURE LIST*
G04 Aperture macros list*
%AMRoundRect*
0 Rectangle with rounded corners*
0 $1 Rounding radius*
0 $2 $3 $4 $5 $6 $7 $8 $9 X,Y pos of 4 corners*
0 Add a 4 corners polygon primitive as box body*
4,1,4,$2,$3,$4,$5,$6,$7,$8,$9,$2,$3,0*
0 Add four circle primitives for the rounded corners*
1,1,$1+$1,$2,$3*
1,1,$1+$1,$4,$5*
1,1,$1+$1,$6,$7*
1,1,$1+$1,$8,$9*
0 Add four rect primitives between the rounded corners*
20,1,$1+$1,$2,$3,$4,$5,0*
20,1,$1+$1,$4,$5,$6,$7,0*
20,1,$1+$1,$6,$7,$8,$9,0*
20,1,$1+$1,$8,$9,$2,$3,0*%
G04 Aperture macros list end*
%ADD10C,3.200000*%
%ADD11RoundRect,0.250001X1.149999X-1.149999X1.149999X1.149999X-1.149999X1.149999X-1.149999X-1.149999X0*%
%ADD12C,2.800000*%
%ADD13R,1.905000X2.000000*%
%ADD14O,1.905000X2.000000*%
%ADD15RoundRect,0.250000X0.650000X-0.325000X0.650000X0.325000X-0.650000X0.325000X-0.650000X-0.325000X0*%
%ADD16RoundRect,0.249999X-0.850001X0.850001X-0.850001X-0.850001X0.850001X-0.850001X0.850001X0.850001X0*%
%ADD17C,2.200000*%
%ADD18RoundRect,0.249999X0.850001X-0.850001X0.850001X0.850001X-0.850001X0.850001X-0.850001X-0.850001X0*%
%ADD19R,1.600000X1.600000*%
%ADD20C,1.600000*%
%ADD21RoundRect,0.250001X-1.149999X1.149999X-1.149999X-1.149999X1.149999X-1.149999X1.149999X1.149999X0*%
%ADD22C,2.400000*%
%ADD23O,2.400000X2.400000*%
%ADD24RoundRect,0.150000X-0.875000X-0.150000X0.875000X-0.150000X0.875000X0.150000X-0.875000X0.150000X0*%
G04 APERTURE END LIST*
D10*
%TO.C,H3*%
X230000000Y-72750000D03*
%TD*%
D11*
%TO.C,J10*%
X219217500Y-129000000D03*
D12*
X219217500Y-124000000D03*
%TD*%
D13*
%TO.C,Q2*%
X172420000Y-99750000D03*
D14*
X174960000Y-99750000D03*
X177500000Y-99750000D03*
%TD*%
D10*
%TO.C,H1*%
X137500000Y-133500000D03*
%TD*%
D11*
%TO.C,J8*%
X170757500Y-129770000D03*
D12*
X170757500Y-124770000D03*
%TD*%
D15*
%TO.C,C5*%
X197800000Y-46430000D03*
X197800000Y-43480000D03*
%TD*%
D10*
%TO.C,H3*%
X179750000Y-121250000D03*
%TD*%
%TO.C,H4*%
X137750000Y-72500000D03*
%TD*%
D16*
%TO.C,J2*%
X207550000Y-43930000D03*
D17*
X207550000Y-46470000D03*
X207550000Y-49010000D03*
X207550000Y-51550000D03*
X207550000Y-54090000D03*
X207550000Y-56630000D03*
X207550000Y-59170000D03*
X207550000Y-61710000D03*
%TD*%
D18*
%TO.C,J1*%
X163450000Y-61330000D03*
D17*
X163450000Y-58790000D03*
X163450000Y-56250000D03*
X163450000Y-53710000D03*
X163450000Y-51170000D03*
X163450000Y-48630000D03*
X163450000Y-46090000D03*
X163450000Y-43550000D03*
%TD*%
D10*
%TO.C,H3*%
X230000000Y-97750000D03*
%TD*%
D13*
%TO.C,U4*%
X177580000Y-109750000D03*
D14*
X175040000Y-109750000D03*
X172500000Y-109750000D03*
%TD*%
D19*
%TO.C,C12*%
X190298674Y-73000000D03*
D20*
X190298674Y-78000000D03*
%TD*%
D10*
%TO.C,H1*%
X187500000Y-133500000D03*
%TD*%
D21*
%TO.C,J9*%
X195750000Y-124250000D03*
D12*
X195750000Y-129250000D03*
%TD*%
D10*
%TO.C,H1*%
X138000000Y-89500000D03*
%TD*%
%TO.C,H2*%
X229750000Y-88750000D03*
%TD*%
D19*
%TO.C,C14*%
X184500000Y-98805000D03*
D20*
X187000000Y-98805000D03*
%TD*%
D19*
%TO.C,C13*%
X190298674Y-84000000D03*
D20*
X190298674Y-89000000D03*
%TD*%
D19*
%TO.C,C15*%
X159200224Y-131020000D03*
D20*
X156700224Y-131020000D03*
%TD*%
D10*
%TO.C,H4*%
X137500000Y-121250000D03*
%TD*%
D13*
%TO.C,U2*%
X175718674Y-72902651D03*
D14*
X178258674Y-72902651D03*
X180798674Y-72902651D03*
%TD*%
D19*
%TO.C,C11*%
X186500000Y-109347349D03*
D20*
X186500000Y-114347349D03*
%TD*%
D10*
%TO.C,H2*%
X216100000Y-63805000D03*
%TD*%
D21*
%TO.C,J3*%
X145290000Y-125020000D03*
D12*
X145290000Y-130020000D03*
%TD*%
D10*
%TO.C,H2*%
X229750000Y-113750000D03*
%TD*%
D21*
%TO.C,J5*%
X162000000Y-99750000D03*
D12*
X162000000Y-104750000D03*
X162000000Y-109750000D03*
%TD*%
D10*
%TO.C,H3*%
X179750000Y-133500000D03*
%TD*%
D13*
%TO.C,U5*%
X155710000Y-124520000D03*
D14*
X158250000Y-124520000D03*
X160790000Y-124520000D03*
%TD*%
D10*
%TO.C,H4*%
X153600000Y-40805000D03*
%TD*%
D11*
%TO.C,J6*%
X201798674Y-84652651D03*
D12*
X201798674Y-79652651D03*
X201798674Y-74652651D03*
%TD*%
D10*
%TO.C,H1*%
X153100000Y-63805000D03*
%TD*%
D19*
%TO.C,C16*%
X209955112Y-130750000D03*
D20*
X207455112Y-130750000D03*
%TD*%
D10*
%TO.C,H2*%
X230250000Y-132750000D03*
%TD*%
D15*
%TO.C,C2*%
X174050000Y-46230000D03*
X174050000Y-43280000D03*
%TD*%
%TO.C,C3*%
X170050000Y-46230000D03*
X170050000Y-43280000D03*
%TD*%
D11*
%TO.C,J7*%
X205500000Y-109250000D03*
D12*
X205500000Y-104250000D03*
X205500000Y-99250000D03*
%TD*%
D15*
%TO.C,C6*%
X201150000Y-46430000D03*
X201150000Y-43480000D03*
%TD*%
D10*
%TO.C,H3*%
X216100000Y-40805000D03*
%TD*%
%TO.C,H3*%
X230250000Y-121750000D03*
%TD*%
%TO.C,H1*%
X138000000Y-113500000D03*
%TD*%
D21*
%TO.C,J4*%
X163331174Y-75652651D03*
D12*
X163331174Y-80652651D03*
X163331174Y-85652651D03*
%TD*%
D13*
%TO.C,U6*%
X204670000Y-124250000D03*
D14*
X207210000Y-124250000D03*
X209750000Y-124250000D03*
%TD*%
D15*
%TO.C,C1*%
X177850000Y-46230000D03*
X177850000Y-43280000D03*
%TD*%
D22*
%TO.C,R4*%
X177840000Y-104750000D03*
D23*
X198160000Y-104750000D03*
%TD*%
D24*
%TO.C,U1*%
X181450000Y-46360000D03*
X181450000Y-47630000D03*
X181450000Y-48900000D03*
X181450000Y-50170000D03*
X181450000Y-51440000D03*
X181450000Y-52710000D03*
X181450000Y-53980000D03*
X181450000Y-55250000D03*
X190750000Y-55250000D03*
X190750000Y-53980000D03*
X190750000Y-52710000D03*
X190750000Y-51440000D03*
X190750000Y-50170000D03*
X190750000Y-48900000D03*
X190750000Y-47630000D03*
X190750000Y-46360000D03*
%TD*%
D15*
%TO.C,C4*%
X194450000Y-46430000D03*
X194450000Y-43480000D03*
%TD*%
D10*
%TO.C,H4*%
X137750000Y-97500000D03*
%TD*%
D13*
%TO.C,U3*%
X180798674Y-86902651D03*
D14*
X178258674Y-86902651D03*
X175718674Y-86902651D03*
%TD*%
D10*
%TO.C,H4*%
X187250000Y-121250000D03*
%TD*%
M02*
