%TF.GenerationSoftware,KiCad,Pcbnew,9.0.0*%
%TF.CreationDate,2026-02-06T17:51:46+07:00*%
%TF.ProjectId,tranfer_logic,7472616e-6665-4725-9f6c-6f6769632e6b,rev?*%
%TF.SameCoordinates,Original*%
%TF.FileFunction,Copper,L2,Bot*%
%TF.FilePolarity,Positive*%
%FSLAX46Y46*%
G04 Gerber Fmt 4.6, Leading zero omitted, Abs format (unit mm)*
G04 Created by KiCad (PCBNEW 9.0.0) date 2026-02-06 17:51:46*
%MOMM*%
%LPD*%
G01*
G04 APERTURE LIST*
G04 Aperture macros list*
%AMRoundRect*
0 Rectangle with rounded corners*
0 $1 Rounding radius*
0 $2 $3 $4 $5 $6 $7 $8 $9 X,Y pos of 4 corners*
0 Add a 4 corners polygon primitive as box body*
4,1,4,$2,$3,$4,$5,$6,$7,$8,$9,$2,$3,0*
0 Add four circle primitives for the rounded corners*
1,1,$1+$1,$2,$3*
1,1,$1+$1,$4,$5*
1,1,$1+$1,$6,$7*
1,1,$1+$1,$8,$9*
0 Add four rect primitives between the rounded corners*
20,1,$1+$1,$2,$3,$4,$5,0*
20,1,$1+$1,$4,$5,$6,$7,0*
20,1,$1+$1,$6,$7,$8,$9,0*
20,1,$1+$1,$8,$9,$2,$3,0*%
G04 Aperture macros list end*
%TA.AperFunction,ComponentPad*%
%ADD10RoundRect,0.250001X1.149999X-1.149999X1.149999X1.149999X-1.149999X1.149999X-1.149999X-1.149999X0*%
%TD*%
%TA.AperFunction,ComponentPad*%
%ADD11C,2.800000*%
%TD*%
%TA.AperFunction,ComponentPad*%
%ADD12R,1.905000X2.000000*%
%TD*%
%TA.AperFunction,ComponentPad*%
%ADD13O,1.905000X2.000000*%
%TD*%
%TA.AperFunction,ComponentPad*%
%ADD14RoundRect,0.249999X-0.850001X0.850001X-0.850001X-0.850001X0.850001X-0.850001X0.850001X0.850001X0*%
%TD*%
%TA.AperFunction,ComponentPad*%
%ADD15C,2.200000*%
%TD*%
%TA.AperFunction,ComponentPad*%
%ADD16RoundRect,0.249999X0.850001X-0.850001X0.850001X0.850001X-0.850001X0.850001X-0.850001X-0.850001X0*%
%TD*%
%TA.AperFunction,ComponentPad*%
%ADD17R,1.600000X1.600000*%
%TD*%
%TA.AperFunction,ComponentPad*%
%ADD18C,1.600000*%
%TD*%
%TA.AperFunction,ComponentPad*%
%ADD19RoundRect,0.250001X-1.149999X1.149999X-1.149999X-1.149999X1.149999X-1.149999X1.149999X1.149999X0*%
%TD*%
%TA.AperFunction,ComponentPad*%
%ADD20C,2.400000*%
%TD*%
%TA.AperFunction,ComponentPad*%
%ADD21O,2.400000X2.400000*%
%TD*%
%TA.AperFunction,Conductor*%
%ADD22C,1.524000*%
%TD*%
G04 APERTURE END LIST*
D10*
%TO.P,J10,1,Pin_1*%
%TO.N,GND in 5v*%
X219217500Y-129000000D03*
D11*
%TO.P,J10,2,Pin_2*%
%TO.N,VDC out 5v*%
X219217500Y-124000000D03*
%TD*%
D12*
%TO.P,Q2,1,B*%
%TO.N,Net-(Q2-B)*%
X172420000Y-99750000D03*
D13*
%TO.P,Q2,2,C*%
%TO.N,+24V*%
X174960000Y-99750000D03*
%TO.P,Q2,3,E*%
%TO.N,Net-(J5-Pin_1)*%
X177500000Y-99750000D03*
%TD*%
D10*
%TO.P,J8,1,Pin_1*%
%TO.N,GND in 3v3*%
X170757500Y-129770000D03*
D11*
%TO.P,J8,2,Pin_2*%
%TO.N,VDC out 3v3*%
X170757500Y-124770000D03*
%TD*%
D14*
%TO.P,J2,1,Pin_1*%
%TO.N,GND2*%
X207550000Y-43930000D03*
D15*
%TO.P,J2,2,Pin_2*%
%TO.N,+3V3*%
X207550000Y-46470000D03*
%TO.P,J2,3,Pin_3*%
%TO.N,Net-(J2-Pin_3)*%
X207550000Y-49010000D03*
%TO.P,J2,4,Pin_4*%
%TO.N,Net-(J2-Pin_4)*%
X207550000Y-51550000D03*
%TO.P,J2,5,Pin_5*%
%TO.N,Net-(J2-Pin_5)*%
X207550000Y-54090000D03*
%TO.P,J2,6,Pin_6*%
%TO.N,Net-(J2-Pin_6)*%
X207550000Y-56630000D03*
%TO.P,J2,7,Pin_7*%
%TO.N,Net-(J2-Pin_7)*%
X207550000Y-59170000D03*
%TO.P,J2,8,Pin_8*%
%TO.N,Net-(J2-Pin_8)*%
X207550000Y-61710000D03*
%TD*%
D16*
%TO.P,J1,1,Pin_1*%
%TO.N,Net-(J1-Pin_1)*%
X163450000Y-61330000D03*
D15*
%TO.P,J1,2,Pin_2*%
%TO.N,Net-(J1-Pin_2)*%
X163450000Y-58790000D03*
%TO.P,J1,3,Pin_3*%
%TO.N,Net-(J1-Pin_3)*%
X163450000Y-56250000D03*
%TO.P,J1,4,Pin_4*%
%TO.N,Net-(J1-Pin_4)*%
X163450000Y-53710000D03*
%TO.P,J1,5,Pin_5*%
%TO.N,Net-(J1-Pin_5)*%
X163450000Y-51170000D03*
%TO.P,J1,6,Pin_6*%
%TO.N,Net-(J1-Pin_6)*%
X163450000Y-48630000D03*
%TO.P,J1,7,Pin_7*%
%TO.N,+5V*%
X163450000Y-46090000D03*
%TO.P,J1,8,Pin_8*%
%TO.N,GND1*%
X163450000Y-43550000D03*
%TD*%
D12*
%TO.P,U4,1,IN*%
%TO.N,Net-(Q2-B)*%
X177580000Y-109750000D03*
D13*
%TO.P,U4,2,GND*%
%TO.N,GND4*%
X175040000Y-109750000D03*
%TO.P,U4,3,OUT*%
%TO.N,+24V*%
X172500000Y-109750000D03*
%TD*%
D17*
%TO.P,C12,1*%
%TO.N,+15V*%
X190298674Y-73000000D03*
D18*
%TO.P,C12,2*%
%TO.N,GND3*%
X190298674Y-78000000D03*
%TD*%
D19*
%TO.P,J9,1,Pin_1*%
%TO.N,VDC in 5v*%
X195750000Y-124250000D03*
D11*
%TO.P,J9,2,Pin_2*%
%TO.N,GND in 5v*%
X195750000Y-129250000D03*
%TD*%
D17*
%TO.P,C14,1*%
%TO.N,+24V*%
X184500000Y-98805000D03*
D18*
%TO.P,C14,2*%
%TO.N,GND4*%
X187000000Y-98805000D03*
%TD*%
D17*
%TO.P,C13,1*%
%TO.N,GND3*%
X190298674Y-84000000D03*
D18*
%TO.P,C13,2*%
%TO.N,-15V*%
X190298674Y-89000000D03*
%TD*%
D17*
%TO.P,C15,1*%
%TO.N,VDC out 3v3*%
X159200224Y-131020000D03*
D18*
%TO.P,C15,2*%
%TO.N,GND in 3v3*%
X156700224Y-131020000D03*
%TD*%
D12*
%TO.P,U2,1,VI*%
%TO.N,Net-(J4-Pin_1)*%
X175718674Y-72902651D03*
D13*
%TO.P,U2,2,GND*%
%TO.N,GND3*%
X178258674Y-72902651D03*
%TO.P,U2,3,VO*%
%TO.N,+15V*%
X180798674Y-72902651D03*
%TD*%
D17*
%TO.P,C11,1*%
%TO.N,Net-(Q2-B)*%
X186500000Y-109347349D03*
D18*
%TO.P,C11,2*%
%TO.N,GND4*%
X186500000Y-114347349D03*
%TD*%
D19*
%TO.P,J3,1,Pin_1*%
%TO.N,VDC in 3v3*%
X145290000Y-125020000D03*
D11*
%TO.P,J3,2,Pin_2*%
%TO.N,GND in 3v3*%
X145290000Y-130020000D03*
%TD*%
D19*
%TO.P,J5,1,Pin_1*%
%TO.N,Net-(J5-Pin_1)*%
X162000000Y-99750000D03*
D11*
%TO.P,J5,2,Pin_2*%
%TO.N,GND4*%
X162000000Y-104750000D03*
%TO.P,J5,3,Pin_3*%
%TO.N,unconnected-(J5-Pin_3-Pad3)*%
X162000000Y-109750000D03*
%TD*%
D12*
%TO.P,U5,1,GND*%
%TO.N,GND in 3v3*%
X155710000Y-124520000D03*
D13*
%TO.P,U5,2,VO*%
%TO.N,VDC out 3v3*%
X158250000Y-124520000D03*
%TO.P,U5,3,VI*%
%TO.N,VDC in 3v3*%
X160790000Y-124520000D03*
%TD*%
D10*
%TO.P,J6,1,Pin_1*%
%TO.N,-15V*%
X201798674Y-84652651D03*
D11*
%TO.P,J6,2,Pin_2*%
%TO.N,GND3*%
X201798674Y-79652651D03*
%TO.P,J6,3,Pin_3*%
%TO.N,+15V*%
X201798674Y-74652651D03*
%TD*%
D17*
%TO.P,C16,1*%
%TO.N,VDC out 5v*%
X209955112Y-130750000D03*
D18*
%TO.P,C16,2*%
%TO.N,GND in 5v*%
X207455112Y-130750000D03*
%TD*%
D10*
%TO.P,J7,1,Pin_1*%
%TO.N,unconnected-(J7-Pin_1-Pad1)*%
X205500000Y-109250000D03*
D11*
%TO.P,J7,2,Pin_2*%
%TO.N,GND4*%
X205500000Y-104250000D03*
%TO.P,J7,3,Pin_3*%
%TO.N,+24V*%
X205500000Y-99250000D03*
%TD*%
D19*
%TO.P,J4,1,Pin_1*%
%TO.N,Net-(J4-Pin_1)*%
X163331174Y-75652651D03*
D11*
%TO.P,J4,2,Pin_2*%
%TO.N,GND3*%
X163331174Y-80652651D03*
%TO.P,J4,3,Pin_3*%
%TO.N,Net-(J4-Pin_3)*%
X163331174Y-85652651D03*
%TD*%
D12*
%TO.P,U6,1,IN*%
%TO.N,VDC in 5v*%
X204670000Y-124250000D03*
D13*
%TO.P,U6,2,GND*%
%TO.N,GND in 5v*%
X207210000Y-124250000D03*
%TO.P,U6,3,OUT*%
%TO.N,VDC out 5v*%
X209750000Y-124250000D03*
%TD*%
D20*
%TO.P,R4,1*%
%TO.N,Net-(Q2-B)*%
X177840000Y-104750000D03*
D21*
%TO.P,R4,2*%
%TO.N,Net-(J5-Pin_1)*%
X198160000Y-104750000D03*
%TD*%
D12*
%TO.P,U3,1,GND*%
%TO.N,GND3*%
X180798674Y-86902651D03*
D13*
%TO.P,U3,2,VI*%
%TO.N,Net-(J4-Pin_3)*%
X178258674Y-86902651D03*
%TO.P,U3,3,VO*%
%TO.N,-15V*%
X175718674Y-86902651D03*
%TD*%
D22*
%TO.N,+24V*%
X185500000Y-96750000D02*
X203000000Y-96750000D01*
X184500000Y-98805000D02*
X184500000Y-97750000D01*
X203000000Y-96750000D02*
X205500000Y-99250000D01*
X184500000Y-97750000D02*
X185500000Y-96750000D01*
X176500000Y-96750000D02*
X183945000Y-96750000D01*
X172500000Y-105250000D02*
X172500000Y-109750000D01*
X183945000Y-96750000D02*
X184500000Y-97305000D01*
X174960000Y-98290000D02*
X176500000Y-96750000D01*
X174960000Y-102790000D02*
X172500000Y-105250000D01*
X184500000Y-97305000D02*
X184500000Y-98805000D01*
X174960000Y-99750000D02*
X174960000Y-102790000D01*
X174960000Y-99750000D02*
X174960000Y-98290000D01*
%TO.N,Net-(J5-Pin_1)*%
X177500000Y-99750000D02*
X179000000Y-99750000D01*
X184000000Y-104750000D02*
X198160000Y-104750000D01*
X179000000Y-99750000D02*
X184000000Y-104750000D01*
%TO.N,GND4*%
X203500000Y-104250000D02*
X205500000Y-104250000D01*
X187000000Y-98805000D02*
X198055000Y-98805000D01*
X198055000Y-98805000D02*
X203500000Y-104250000D01*
%TO.N,VDC out 3v3*%
X161790000Y-131020000D02*
X168040000Y-124770000D01*
X168040000Y-124770000D02*
X170757500Y-124770000D01*
X158250000Y-127480000D02*
X159200224Y-128430224D01*
X159200224Y-131020000D02*
X161790000Y-131020000D01*
X158250000Y-124520000D02*
X158250000Y-127480000D01*
X159200224Y-128430224D02*
X159200224Y-131020000D01*
%TO.N,GND in 3v3*%
X145290000Y-130020000D02*
X155700224Y-130020000D01*
X155710000Y-130029776D02*
X156700224Y-131020000D01*
X155710000Y-124520000D02*
X155710000Y-130029776D01*
X169540000Y-129770000D02*
X170757500Y-129770000D01*
X165290000Y-134020000D02*
X169540000Y-129770000D01*
X156700224Y-132930224D02*
X157790000Y-134020000D01*
X156700224Y-131020000D02*
X156700224Y-132930224D01*
X157790000Y-134020000D02*
X165290000Y-134020000D01*
X155700224Y-130020000D02*
X156700224Y-131020000D01*
%TO.N,VDC in 3v3*%
X158790000Y-120520000D02*
X160790000Y-122520000D01*
X146790000Y-120520000D02*
X158790000Y-120520000D01*
X145290000Y-122020000D02*
X146790000Y-120520000D01*
X160790000Y-122520000D02*
X160790000Y-124520000D01*
X145290000Y-125020000D02*
X145290000Y-122020000D01*
%TD*%
M02*
