M48
; DRILL file {KiCad 9.0.0} date 2026-02-06T17:51:48+0700
; FORMAT={-:-/ absolute / metric / decimal}
; #@! TF.CreationDate,2026-02-06T17:51:48+07:00
; #@! TF.GenerationSoftware,Kicad,Pcbnew,9.0.0
; #@! TF.FileFunction,Plated,1,2,PTH
FMAT,2
METRIC
; #@! TA.AperFunction,Plated,PTH,ComponentDrill
T1C0.800
; #@! TA.AperFunction,Plated,PTH,ComponentDrill
T2C1.100
; #@! TA.AperFunction,Plated,PTH,ComponentDrill
T3C1.200
; #@! TA.AperFunction,Plated,PTH,ComponentDrill
T4C1.300
%
G90
G05
T1
X156.7Y-131.02
X159.2Y-131.02
X184.5Y-98.805
X186.5Y-109.347
X186.5Y-114.347
X187.0Y-98.805
X190.299Y-73.0
X190.299Y-78.0
X190.299Y-84.0
X190.299Y-89.0
X207.455Y-130.75
X209.955Y-130.75
T2
X155.71Y-124.52
X158.25Y-124.52
X160.79Y-124.52
X163.45Y-43.55
X163.45Y-46.09
X163.45Y-48.63
X163.45Y-51.17
X163.45Y-53.71
X163.45Y-56.25
X163.45Y-58.79
X163.45Y-61.33
X172.42Y-99.75
X172.5Y-109.75
X174.96Y-99.75
X175.04Y-109.75
X175.719Y-72.903
X175.719Y-86.903
X177.5Y-99.75
X177.58Y-109.75
X178.259Y-72.903
X178.259Y-86.903
X180.799Y-72.903
X180.799Y-86.903
X204.67Y-124.25
X207.21Y-124.25
X207.55Y-43.93
X207.55Y-46.47
X207.55Y-49.01
X207.55Y-51.55
X207.55Y-54.09
X207.55Y-56.63
X207.55Y-59.17
X207.55Y-61.71
X209.75Y-124.25
T3
X177.84Y-104.75
X198.16Y-104.75
T4
X145.29Y-125.02
X145.29Y-130.02
X162.0Y-99.75
X162.0Y-104.75
X162.0Y-109.75
X163.331Y-75.653
X163.331Y-80.653
X163.331Y-85.653
X170.757Y-124.77
X170.757Y-129.77
X195.75Y-124.25
X195.75Y-129.25
X201.799Y-74.653
X201.799Y-79.653
X201.799Y-84.653
X205.5Y-99.25
X205.5Y-104.25
X205.5Y-109.25
X219.218Y-124.0
X219.218Y-129.0
M30
