%TF.GenerationSoftware,KiCad,Pcbnew,9.0.0*%
%TF.CreationDate,2026-02-06T17:51:46+07:00*%
%TF.ProjectId,tranfer_logic,7472616e-6665-4725-9f6c-6f6769632e6b,rev?*%
%TF.SameCoordinates,Original*%
%TF.FileFunction,Copper,L1,Top*%
%TF.FilePolarity,Positive*%
%FSLAX46Y46*%
G04 Gerber Fmt 4.6, Leading zero omitted, Abs format (unit mm)*
G04 Created by KiCad (PCBNEW 9.0.0) date 2026-02-06 17:51:46*
%MOMM*%
%LPD*%
G01*
G04 APERTURE LIST*
G04 Aperture macros list*
%AMRoundRect*
0 Rectangle with rounded corners*
0 $1 Rounding radius*
0 $2 $3 $4 $5 $6 $7 $8 $9 X,Y pos of 4 corners*
0 Add a 4 corners polygon primitive as box body*
4,1,4,$2,$3,$4,$5,$6,$7,$8,$9,$2,$3,0*
0 Add four circle primitives for the rounded corners*
1,1,$1+$1,$2,$3*
1,1,$1+$1,$4,$5*
1,1,$1+$1,$6,$7*
1,1,$1+$1,$8,$9*
0 Add four rect primitives between the rounded corners*
20,1,$1+$1,$2,$3,$4,$5,0*
20,1,$1+$1,$4,$5,$6,$7,0*
20,1,$1+$1,$6,$7,$8,$9,0*
20,1,$1+$1,$8,$9,$2,$3,0*%
G04 Aperture macros list end*
%TA.AperFunction,ComponentPad*%
%ADD10RoundRect,0.250001X1.149999X-1.149999X1.149999X1.149999X-1.149999X1.149999X-1.149999X-1.149999X0*%
%TD*%
%TA.AperFunction,ComponentPad*%
%ADD11C,2.800000*%
%TD*%
%TA.AperFunction,ComponentPad*%
%ADD12R,1.905000X2.000000*%
%TD*%
%TA.AperFunction,ComponentPad*%
%ADD13O,1.905000X2.000000*%
%TD*%
%TA.AperFunction,SMDPad,CuDef*%
%ADD14RoundRect,0.250000X0.650000X-0.325000X0.650000X0.325000X-0.650000X0.325000X-0.650000X-0.325000X0*%
%TD*%
%TA.AperFunction,ComponentPad*%
%ADD15RoundRect,0.249999X-0.850001X0.850001X-0.850001X-0.850001X0.850001X-0.850001X0.850001X0.850001X0*%
%TD*%
%TA.AperFunction,ComponentPad*%
%ADD16C,2.200000*%
%TD*%
%TA.AperFunction,ComponentPad*%
%ADD17RoundRect,0.249999X0.850001X-0.850001X0.850001X0.850001X-0.850001X0.850001X-0.850001X-0.850001X0*%
%TD*%
%TA.AperFunction,ComponentPad*%
%ADD18R,1.600000X1.600000*%
%TD*%
%TA.AperFunction,ComponentPad*%
%ADD19C,1.600000*%
%TD*%
%TA.AperFunction,ComponentPad*%
%ADD20RoundRect,0.250001X-1.149999X1.149999X-1.149999X-1.149999X1.149999X-1.149999X1.149999X1.149999X0*%
%TD*%
%TA.AperFunction,ComponentPad*%
%ADD21C,2.400000*%
%TD*%
%TA.AperFunction,ComponentPad*%
%ADD22O,2.400000X2.400000*%
%TD*%
%TA.AperFunction,SMDPad,CuDef*%
%ADD23RoundRect,0.150000X-0.875000X-0.150000X0.875000X-0.150000X0.875000X0.150000X-0.875000X0.150000X0*%
%TD*%
%TA.AperFunction,Conductor*%
%ADD24C,0.508000*%
%TD*%
%TA.AperFunction,Conductor*%
%ADD25C,0.200000*%
%TD*%
%TA.AperFunction,Conductor*%
%ADD26C,1.524000*%
%TD*%
G04 APERTURE END LIST*
D10*
%TO.P,J10,1,Pin_1*%
%TO.N,GND in 5v*%
X219217500Y-129000000D03*
D11*
%TO.P,J10,2,Pin_2*%
%TO.N,VDC out 5v*%
X219217500Y-124000000D03*
%TD*%
D12*
%TO.P,Q2,1,B*%
%TO.N,Net-(Q2-B)*%
X172420000Y-99750000D03*
D13*
%TO.P,Q2,2,C*%
%TO.N,+24V*%
X174960000Y-99750000D03*
%TO.P,Q2,3,E*%
%TO.N,Net-(J5-Pin_1)*%
X177500000Y-99750000D03*
%TD*%
D10*
%TO.P,J8,1,Pin_1*%
%TO.N,GND in 3v3*%
X170757500Y-129770000D03*
D11*
%TO.P,J8,2,Pin_2*%
%TO.N,VDC out 3v3*%
X170757500Y-124770000D03*
%TD*%
D14*
%TO.P,C5,1*%
%TO.N,+3V3*%
X197800000Y-46430000D03*
%TO.P,C5,2*%
%TO.N,GND2*%
X197800000Y-43480000D03*
%TD*%
D15*
%TO.P,J2,1,Pin_1*%
%TO.N,GND2*%
X207550000Y-43930000D03*
D16*
%TO.P,J2,2,Pin_2*%
%TO.N,+3V3*%
X207550000Y-46470000D03*
%TO.P,J2,3,Pin_3*%
%TO.N,Net-(J2-Pin_3)*%
X207550000Y-49010000D03*
%TO.P,J2,4,Pin_4*%
%TO.N,Net-(J2-Pin_4)*%
X207550000Y-51550000D03*
%TO.P,J2,5,Pin_5*%
%TO.N,Net-(J2-Pin_5)*%
X207550000Y-54090000D03*
%TO.P,J2,6,Pin_6*%
%TO.N,Net-(J2-Pin_6)*%
X207550000Y-56630000D03*
%TO.P,J2,7,Pin_7*%
%TO.N,Net-(J2-Pin_7)*%
X207550000Y-59170000D03*
%TO.P,J2,8,Pin_8*%
%TO.N,Net-(J2-Pin_8)*%
X207550000Y-61710000D03*
%TD*%
D17*
%TO.P,J1,1,Pin_1*%
%TO.N,Net-(J1-Pin_1)*%
X163450000Y-61330000D03*
D16*
%TO.P,J1,2,Pin_2*%
%TO.N,Net-(J1-Pin_2)*%
X163450000Y-58790000D03*
%TO.P,J1,3,Pin_3*%
%TO.N,Net-(J1-Pin_3)*%
X163450000Y-56250000D03*
%TO.P,J1,4,Pin_4*%
%TO.N,Net-(J1-Pin_4)*%
X163450000Y-53710000D03*
%TO.P,J1,5,Pin_5*%
%TO.N,Net-(J1-Pin_5)*%
X163450000Y-51170000D03*
%TO.P,J1,6,Pin_6*%
%TO.N,Net-(J1-Pin_6)*%
X163450000Y-48630000D03*
%TO.P,J1,7,Pin_7*%
%TO.N,+5V*%
X163450000Y-46090000D03*
%TO.P,J1,8,Pin_8*%
%TO.N,GND1*%
X163450000Y-43550000D03*
%TD*%
D12*
%TO.P,U4,1,IN*%
%TO.N,Net-(Q2-B)*%
X177580000Y-109750000D03*
D13*
%TO.P,U4,2,GND*%
%TO.N,GND4*%
X175040000Y-109750000D03*
%TO.P,U4,3,OUT*%
%TO.N,+24V*%
X172500000Y-109750000D03*
%TD*%
D18*
%TO.P,C12,1*%
%TO.N,+15V*%
X190298674Y-73000000D03*
D19*
%TO.P,C12,2*%
%TO.N,GND3*%
X190298674Y-78000000D03*
%TD*%
D20*
%TO.P,J9,1,Pin_1*%
%TO.N,VDC in 5v*%
X195750000Y-124250000D03*
D11*
%TO.P,J9,2,Pin_2*%
%TO.N,GND in 5v*%
X195750000Y-129250000D03*
%TD*%
D18*
%TO.P,C14,1*%
%TO.N,+24V*%
X184500000Y-98805000D03*
D19*
%TO.P,C14,2*%
%TO.N,GND4*%
X187000000Y-98805000D03*
%TD*%
D18*
%TO.P,C13,1*%
%TO.N,GND3*%
X190298674Y-84000000D03*
D19*
%TO.P,C13,2*%
%TO.N,-15V*%
X190298674Y-89000000D03*
%TD*%
D18*
%TO.P,C15,1*%
%TO.N,VDC out 3v3*%
X159200224Y-131020000D03*
D19*
%TO.P,C15,2*%
%TO.N,GND in 3v3*%
X156700224Y-131020000D03*
%TD*%
D12*
%TO.P,U2,1,VI*%
%TO.N,Net-(J4-Pin_1)*%
X175718674Y-72902651D03*
D13*
%TO.P,U2,2,GND*%
%TO.N,GND3*%
X178258674Y-72902651D03*
%TO.P,U2,3,VO*%
%TO.N,+15V*%
X180798674Y-72902651D03*
%TD*%
D18*
%TO.P,C11,1*%
%TO.N,Net-(Q2-B)*%
X186500000Y-109347349D03*
D19*
%TO.P,C11,2*%
%TO.N,GND4*%
X186500000Y-114347349D03*
%TD*%
D20*
%TO.P,J3,1,Pin_1*%
%TO.N,VDC in 3v3*%
X145290000Y-125020000D03*
D11*
%TO.P,J3,2,Pin_2*%
%TO.N,GND in 3v3*%
X145290000Y-130020000D03*
%TD*%
D20*
%TO.P,J5,1,Pin_1*%
%TO.N,Net-(J5-Pin_1)*%
X162000000Y-99750000D03*
D11*
%TO.P,J5,2,Pin_2*%
%TO.N,GND4*%
X162000000Y-104750000D03*
%TO.P,J5,3,Pin_3*%
%TO.N,unconnected-(J5-Pin_3-Pad3)*%
X162000000Y-109750000D03*
%TD*%
D12*
%TO.P,U5,1,GND*%
%TO.N,GND in 3v3*%
X155710000Y-124520000D03*
D13*
%TO.P,U5,2,VO*%
%TO.N,VDC out 3v3*%
X158250000Y-124520000D03*
%TO.P,U5,3,VI*%
%TO.N,VDC in 3v3*%
X160790000Y-124520000D03*
%TD*%
D10*
%TO.P,J6,1,Pin_1*%
%TO.N,-15V*%
X201798674Y-84652651D03*
D11*
%TO.P,J6,2,Pin_2*%
%TO.N,GND3*%
X201798674Y-79652651D03*
%TO.P,J6,3,Pin_3*%
%TO.N,+15V*%
X201798674Y-74652651D03*
%TD*%
D18*
%TO.P,C16,1*%
%TO.N,VDC out 5v*%
X209955112Y-130750000D03*
D19*
%TO.P,C16,2*%
%TO.N,GND in 5v*%
X207455112Y-130750000D03*
%TD*%
D14*
%TO.P,C2,1*%
%TO.N,+5V*%
X174050000Y-46230000D03*
%TO.P,C2,2*%
%TO.N,GND1*%
X174050000Y-43280000D03*
%TD*%
%TO.P,C3,1*%
%TO.N,+5V*%
X170050000Y-46230000D03*
%TO.P,C3,2*%
%TO.N,GND1*%
X170050000Y-43280000D03*
%TD*%
D10*
%TO.P,J7,1,Pin_1*%
%TO.N,unconnected-(J7-Pin_1-Pad1)*%
X205500000Y-109250000D03*
D11*
%TO.P,J7,2,Pin_2*%
%TO.N,GND4*%
X205500000Y-104250000D03*
%TO.P,J7,3,Pin_3*%
%TO.N,+24V*%
X205500000Y-99250000D03*
%TD*%
D14*
%TO.P,C6,1*%
%TO.N,+3V3*%
X201150000Y-46430000D03*
%TO.P,C6,2*%
%TO.N,GND2*%
X201150000Y-43480000D03*
%TD*%
D20*
%TO.P,J4,1,Pin_1*%
%TO.N,Net-(J4-Pin_1)*%
X163331174Y-75652651D03*
D11*
%TO.P,J4,2,Pin_2*%
%TO.N,GND3*%
X163331174Y-80652651D03*
%TO.P,J4,3,Pin_3*%
%TO.N,Net-(J4-Pin_3)*%
X163331174Y-85652651D03*
%TD*%
D12*
%TO.P,U6,1,IN*%
%TO.N,VDC in 5v*%
X204670000Y-124250000D03*
D13*
%TO.P,U6,2,GND*%
%TO.N,GND in 5v*%
X207210000Y-124250000D03*
%TO.P,U6,3,OUT*%
%TO.N,VDC out 5v*%
X209750000Y-124250000D03*
%TD*%
D14*
%TO.P,C1,1*%
%TO.N,+5V*%
X177850000Y-46230000D03*
%TO.P,C1,2*%
%TO.N,GND1*%
X177850000Y-43280000D03*
%TD*%
D21*
%TO.P,R4,1*%
%TO.N,Net-(Q2-B)*%
X177840000Y-104750000D03*
D22*
%TO.P,R4,2*%
%TO.N,Net-(J5-Pin_1)*%
X198160000Y-104750000D03*
%TD*%
D23*
%TO.P,U1,1,Vcc1*%
%TO.N,+5V*%
X181450000Y-46360000D03*
%TO.P,U1,2,INA*%
%TO.N,Net-(J1-Pin_6)*%
X181450000Y-47630000D03*
%TO.P,U1,3,INB*%
%TO.N,Net-(J1-Pin_5)*%
X181450000Y-48900000D03*
%TO.P,U1,4,INC*%
%TO.N,Net-(J1-Pin_4)*%
X181450000Y-50170000D03*
%TO.P,U1,5,IND*%
%TO.N,Net-(J1-Pin_3)*%
X181450000Y-51440000D03*
%TO.P,U1,6,INE*%
%TO.N,Net-(J1-Pin_2)*%
X181450000Y-52710000D03*
%TO.P,U1,7,INF*%
%TO.N,Net-(J1-Pin_1)*%
X181450000Y-53980000D03*
%TO.P,U1,8,GND1*%
%TO.N,GND1*%
X181450000Y-55250000D03*
%TO.P,U1,9,GND2*%
%TO.N,GND2*%
X190750000Y-55250000D03*
%TO.P,U1,10,OUTF*%
%TO.N,Net-(J2-Pin_8)*%
X190750000Y-53980000D03*
%TO.P,U1,11,OUTE*%
%TO.N,Net-(J2-Pin_7)*%
X190750000Y-52710000D03*
%TO.P,U1,12,OUTD*%
%TO.N,Net-(J2-Pin_6)*%
X190750000Y-51440000D03*
%TO.P,U1,13,OUTC*%
%TO.N,Net-(J2-Pin_5)*%
X190750000Y-50170000D03*
%TO.P,U1,14,OUTB*%
%TO.N,Net-(J2-Pin_4)*%
X190750000Y-48900000D03*
%TO.P,U1,15,OUTA*%
%TO.N,Net-(J2-Pin_3)*%
X190750000Y-47630000D03*
%TO.P,U1,16,Vcc2*%
%TO.N,+3V3*%
X190750000Y-46360000D03*
%TD*%
D14*
%TO.P,C4,1*%
%TO.N,+3V3*%
X194450000Y-46430000D03*
%TO.P,C4,2*%
%TO.N,GND2*%
X194450000Y-43480000D03*
%TD*%
D12*
%TO.P,U3,1,GND*%
%TO.N,GND3*%
X180798674Y-86902651D03*
D13*
%TO.P,U3,2,VI*%
%TO.N,Net-(J4-Pin_3)*%
X178258674Y-86902651D03*
%TO.P,U3,3,VO*%
%TO.N,-15V*%
X175718674Y-86902651D03*
%TD*%
D24*
%TO.N,+5V*%
X174050000Y-46230000D02*
X177850000Y-46230000D01*
X177850000Y-46230000D02*
X181320000Y-46230000D01*
D25*
X181320000Y-46230000D02*
X181450000Y-46360000D01*
D24*
X163450000Y-46090000D02*
X169910000Y-46090000D01*
X170050000Y-46230000D02*
X174050000Y-46230000D01*
X169910000Y-46090000D02*
X170050000Y-46230000D01*
%TO.N,+3V3*%
X207550000Y-46470000D02*
X201190000Y-46470000D01*
D25*
X194380000Y-46360000D02*
X194450000Y-46430000D01*
D24*
X197800000Y-46430000D02*
X194450000Y-46430000D01*
X201190000Y-46470000D02*
X201150000Y-46430000D01*
X190750000Y-46360000D02*
X194380000Y-46360000D01*
X201150000Y-46430000D02*
X197800000Y-46430000D01*
%TO.N,Net-(J1-Pin_2)*%
X166490000Y-58790000D02*
X172570000Y-52710000D01*
X172570000Y-52710000D02*
X181450000Y-52710000D01*
X163450000Y-58790000D02*
X166490000Y-58790000D01*
%TO.N,Net-(J1-Pin_1)*%
X166550000Y-61330000D02*
X173900000Y-53980000D01*
X173900000Y-53980000D02*
X181450000Y-53980000D01*
X163450000Y-61330000D02*
X166550000Y-61330000D01*
%TO.N,Net-(J1-Pin_4)*%
X166570000Y-53710000D02*
X170110000Y-50170000D01*
X170110000Y-50170000D02*
X181450000Y-50170000D01*
X163450000Y-53710000D02*
X166570000Y-53710000D01*
%TO.N,Net-(J1-Pin_3)*%
X166630000Y-56250000D02*
X171440000Y-51440000D01*
X163450000Y-56250000D02*
X166630000Y-56250000D01*
X171440000Y-51440000D02*
X181450000Y-51440000D01*
%TO.N,Net-(J1-Pin_5)*%
X163450000Y-51170000D02*
X166510000Y-51170000D01*
X166510000Y-51170000D02*
X168780000Y-48900000D01*
X168780000Y-48900000D02*
X181450000Y-48900000D01*
%TO.N,Net-(J1-Pin_6)*%
X166650000Y-48630000D02*
X167650000Y-47630000D01*
X163450000Y-48630000D02*
X166650000Y-48630000D01*
X167650000Y-47630000D02*
X181450000Y-47630000D01*
%TO.N,Net-(J2-Pin_6)*%
X207550000Y-56630000D02*
X204750000Y-56630000D01*
X199560000Y-51440000D02*
X190750000Y-51440000D01*
X204750000Y-56630000D02*
X199560000Y-51440000D01*
%TO.N,Net-(J2-Pin_8)*%
X197100000Y-53980000D02*
X190750000Y-53980000D01*
X204830000Y-61710000D02*
X197100000Y-53980000D01*
X207550000Y-61710000D02*
X204830000Y-61710000D01*
%TO.N,Net-(J2-Pin_4)*%
X207550000Y-51550000D02*
X204670000Y-51550000D01*
X202020000Y-48900000D02*
X190750000Y-48900000D01*
X204670000Y-51550000D02*
X202020000Y-48900000D01*
%TO.N,Net-(J2-Pin_5)*%
X207550000Y-54090000D02*
X204710000Y-54090000D01*
X200790000Y-50170000D02*
X190750000Y-50170000D01*
X204710000Y-54090000D02*
X200790000Y-50170000D01*
%TO.N,Net-(J2-Pin_3)*%
X204630000Y-49010000D02*
X203250000Y-47630000D01*
X207550000Y-49010000D02*
X204630000Y-49010000D01*
X203250000Y-47630000D02*
X190750000Y-47630000D01*
%TO.N,Net-(J2-Pin_7)*%
X198330000Y-52710000D02*
X190750000Y-52710000D01*
X207550000Y-59170000D02*
X204790000Y-59170000D01*
X204790000Y-59170000D02*
X198330000Y-52710000D01*
D26*
%TO.N,Net-(Q2-B)*%
X177840000Y-109490000D02*
X177580000Y-109750000D01*
X177840000Y-104750000D02*
X177840000Y-109490000D01*
X186500000Y-109347349D02*
X177982651Y-109347349D01*
X173500000Y-102750000D02*
X175840000Y-102750000D01*
X175840000Y-102750000D02*
X177840000Y-104750000D01*
X172420000Y-99750000D02*
X172420000Y-101670000D01*
X172420000Y-101670000D02*
X173500000Y-102750000D01*
X177982651Y-109347349D02*
X177580000Y-109750000D01*
%TO.N,Net-(J4-Pin_1)*%
X164298674Y-72902651D02*
X175718674Y-72902651D01*
X163331174Y-73870151D02*
X164298674Y-72902651D01*
X163331174Y-75652651D02*
X163331174Y-73870151D01*
%TO.N,Net-(J4-Pin_3)*%
X163331174Y-85652651D02*
X167048674Y-85652651D01*
X178258674Y-84862651D02*
X178258674Y-86902651D01*
X177298674Y-83902651D02*
X178258674Y-84862651D01*
X168798674Y-83902651D02*
X177298674Y-83902651D01*
X167048674Y-85652651D02*
X168798674Y-83902651D01*
%TO.N,+15V*%
X180798674Y-72902651D02*
X190201325Y-72902651D01*
X190298674Y-73000000D02*
X200146023Y-73000000D01*
X200146023Y-73000000D02*
X201798674Y-74652651D01*
X190201325Y-72902651D02*
X190298674Y-73000000D01*
%TO.N,-15V*%
X200326325Y-89000000D02*
X201798674Y-87527651D01*
X190298674Y-89000000D02*
X200326325Y-89000000D01*
X175718674Y-86902651D02*
X175718674Y-88822651D01*
X189298674Y-90402651D02*
X190298674Y-89402651D01*
X175718674Y-88822651D02*
X177298674Y-90402651D01*
X190298674Y-89402651D02*
X190298674Y-89000000D01*
X201798674Y-87527651D02*
X201798674Y-84652651D01*
X177298674Y-90402651D02*
X189298674Y-90402651D01*
%TO.N,Net-(J5-Pin_1)*%
X164000000Y-96750000D02*
X176000000Y-96750000D01*
X176000000Y-96750000D02*
X177500000Y-98250000D01*
X162000000Y-98750000D02*
X164000000Y-96750000D01*
X177500000Y-98250000D02*
X177500000Y-99750000D01*
X162000000Y-99750000D02*
X162000000Y-98750000D01*
%TO.N,GND3*%
X176048674Y-80652651D02*
X176798674Y-80652651D01*
X190298674Y-78000000D02*
X194896023Y-78000000D01*
X195298674Y-82902651D02*
X195298674Y-80902651D01*
X177548674Y-79152651D02*
X178258674Y-78442651D01*
X195298674Y-80902651D02*
X196548674Y-79652651D01*
X178048674Y-80652651D02*
X180798674Y-83402651D01*
X163331174Y-80652651D02*
X176048674Y-80652651D01*
X180798674Y-83402651D02*
X180798674Y-84652651D01*
X194201325Y-84000000D02*
X195298674Y-82902651D01*
X181451325Y-84000000D02*
X190298674Y-84000000D01*
X176798674Y-80652651D02*
X190048674Y-80652651D01*
X196548674Y-79652651D02*
X201798674Y-79652651D01*
X178701325Y-78000000D02*
X177548674Y-79152651D01*
X180798674Y-84652651D02*
X181451325Y-84000000D01*
X190298674Y-80902651D02*
X195298674Y-80902651D01*
X176048674Y-80652651D02*
X177548674Y-79152651D01*
X190298674Y-78000000D02*
X178701325Y-78000000D01*
X190298674Y-80902651D02*
X190298674Y-84000000D01*
X176798674Y-80652651D02*
X178048674Y-80652651D01*
X190298674Y-78000000D02*
X190298674Y-80902651D01*
X190298674Y-84000000D02*
X194201325Y-84000000D01*
X190048674Y-80652651D02*
X190298674Y-80902651D01*
X178258674Y-78442651D02*
X178258674Y-72902651D01*
X180798674Y-84652651D02*
X180798674Y-86902651D01*
X194896023Y-78000000D02*
X196548674Y-79652651D01*
%TO.N,GND4*%
X189055000Y-98805000D02*
X190000000Y-99750000D01*
X187000000Y-98805000D02*
X189055000Y-98805000D01*
X175040000Y-109750000D02*
X175040000Y-112790000D01*
X162500000Y-105250000D02*
X174500000Y-105250000D01*
X175040000Y-112790000D02*
X176597349Y-114347349D01*
X162000000Y-104750000D02*
X162500000Y-105250000D01*
X188902651Y-114347349D02*
X186500000Y-114347349D01*
X190000000Y-113250000D02*
X188902651Y-114347349D01*
X176597349Y-114347349D02*
X186500000Y-114347349D01*
X175040000Y-105790000D02*
X175040000Y-109750000D01*
X190000000Y-99750000D02*
X190000000Y-113250000D01*
X174500000Y-105250000D02*
X175040000Y-105790000D01*
%TO.N,VDC out 5v*%
X218967500Y-124250000D02*
X219217500Y-124000000D01*
X209750000Y-124250000D02*
X209750000Y-130544888D01*
X209750000Y-130544888D02*
X209955112Y-130750000D01*
X209750000Y-124250000D02*
X218967500Y-124250000D01*
%TO.N,GND in 5v*%
X207455112Y-130750000D02*
X197250000Y-130750000D01*
X207455112Y-130750000D02*
X207455112Y-132455112D01*
X207455112Y-132455112D02*
X208987000Y-133987000D01*
X208987000Y-133987000D02*
X218013000Y-133987000D01*
X207210000Y-130504888D02*
X207455112Y-130750000D01*
X219217500Y-132782500D02*
X219217500Y-129000000D01*
X218013000Y-133987000D02*
X219217500Y-132782500D01*
X197250000Y-130750000D02*
X195750000Y-129250000D01*
X207210000Y-124250000D02*
X207210000Y-130504888D01*
%TO.N,VDC in 5v*%
X195750000Y-124250000D02*
X204670000Y-124250000D01*
%TD*%
%TA.AperFunction,Conductor*%
%TO.N,GND2*%
G36*
X212043039Y-37520185D02*
G01*
X212088794Y-37572989D01*
X212100000Y-37624500D01*
X212100000Y-44805000D01*
X219476000Y-44805000D01*
X219543039Y-44824685D01*
X219588794Y-44877489D01*
X219600000Y-44929000D01*
X219600000Y-59681000D01*
X219580315Y-59748039D01*
X219527511Y-59793794D01*
X219476000Y-59805000D01*
X212100000Y-59805000D01*
X212100000Y-67181000D01*
X212080315Y-67248039D01*
X212027511Y-67293794D01*
X211976000Y-67305000D01*
X190224000Y-67305000D01*
X190156961Y-67285315D01*
X190111206Y-67232511D01*
X190100000Y-67181000D01*
X190100000Y-56174000D01*
X190119685Y-56106961D01*
X190172489Y-56061206D01*
X190224000Y-56050000D01*
X190500000Y-56050000D01*
X191000000Y-56050000D01*
X191690634Y-56050000D01*
X191690649Y-56049999D01*
X191727489Y-56047100D01*
X191727495Y-56047099D01*
X191885193Y-56001283D01*
X191885196Y-56001282D01*
X192026552Y-55917685D01*
X192026561Y-55917678D01*
X192142678Y-55801561D01*
X192142685Y-55801552D01*
X192226281Y-55660198D01*
X192272100Y-55502486D01*
X192272295Y-55500001D01*
X192272295Y-55500000D01*
X191000000Y-55500000D01*
X191000000Y-56050000D01*
X190500000Y-56050000D01*
X190500000Y-55374000D01*
X190519685Y-55306961D01*
X190572489Y-55261206D01*
X190624000Y-55250000D01*
X190750000Y-55250000D01*
X190750000Y-55124000D01*
X190769685Y-55056961D01*
X190822489Y-55011206D01*
X190874000Y-55000000D01*
X192272295Y-55000000D01*
X192272295Y-54999998D01*
X192272100Y-54997511D01*
X192272099Y-54997505D01*
X192241765Y-54893095D01*
X192241964Y-54823226D01*
X192279906Y-54764556D01*
X192343544Y-54735712D01*
X192360841Y-54734500D01*
X196736113Y-54734500D01*
X196803152Y-54754185D01*
X196823794Y-54770819D01*
X204239600Y-62186624D01*
X204239621Y-62186647D01*
X204349029Y-62296055D01*
X204349032Y-62296057D01*
X204349034Y-62296059D01*
X204431605Y-62351230D01*
X204472611Y-62378630D01*
X204550120Y-62410735D01*
X204609920Y-62435505D01*
X204609922Y-62435505D01*
X204609924Y-62435506D01*
X204634104Y-62440315D01*
X204634110Y-62440316D01*
X204755686Y-62464501D01*
X204755688Y-62464501D01*
X204910426Y-62464501D01*
X204910446Y-62464500D01*
X206062167Y-62464500D01*
X206129206Y-62484185D01*
X206172653Y-62532207D01*
X206181132Y-62548849D01*
X206329201Y-62752649D01*
X206329205Y-62752654D01*
X206507345Y-62930794D01*
X206507350Y-62930798D01*
X206685117Y-63059952D01*
X206711155Y-63078870D01*
X206854184Y-63151747D01*
X206935616Y-63193239D01*
X206935618Y-63193239D01*
X206935621Y-63193241D01*
X207175215Y-63271090D01*
X207424038Y-63310500D01*
X207424039Y-63310500D01*
X207675961Y-63310500D01*
X207675962Y-63310500D01*
X207924785Y-63271090D01*
X208164379Y-63193241D01*
X208388845Y-63078870D01*
X208592656Y-62930793D01*
X208770793Y-62752656D01*
X208918870Y-62548845D01*
X209033241Y-62324379D01*
X209111090Y-62084785D01*
X209150500Y-61835962D01*
X209150500Y-61584038D01*
X209111090Y-61335215D01*
X209033241Y-61095621D01*
X209033239Y-61095618D01*
X209033239Y-61095616D01*
X208991747Y-61014184D01*
X208918870Y-60871155D01*
X208899952Y-60845117D01*
X208770798Y-60667350D01*
X208770794Y-60667345D01*
X208631130Y-60527681D01*
X208597645Y-60466358D01*
X208602629Y-60396666D01*
X208631130Y-60352319D01*
X208770793Y-60212656D01*
X208918870Y-60008845D01*
X209033241Y-59784379D01*
X209111090Y-59544785D01*
X209150500Y-59295962D01*
X209150500Y-59044038D01*
X209111090Y-58795215D01*
X209033241Y-58555621D01*
X209033239Y-58555618D01*
X209033239Y-58555616D01*
X208991747Y-58474184D01*
X208918870Y-58331155D01*
X208899952Y-58305117D01*
X208770798Y-58127350D01*
X208770794Y-58127345D01*
X208631130Y-57987681D01*
X208597645Y-57926358D01*
X208602629Y-57856666D01*
X208631130Y-57812319D01*
X208770793Y-57672656D01*
X208918870Y-57468845D01*
X209033241Y-57244379D01*
X209111090Y-57004785D01*
X209150500Y-56755962D01*
X209150500Y-56504038D01*
X209111090Y-56255215D01*
X209033241Y-56015621D01*
X209033239Y-56015618D01*
X209033239Y-56015616D01*
X208983340Y-55917685D01*
X208918870Y-55791155D01*
X208899952Y-55765117D01*
X208770798Y-55587350D01*
X208770794Y-55587345D01*
X208631130Y-55447681D01*
X208597645Y-55386358D01*
X208602629Y-55316666D01*
X208631130Y-55272319D01*
X208653449Y-55250000D01*
X208770793Y-55132656D01*
X208918870Y-54928845D01*
X209033241Y-54704379D01*
X209111090Y-54464785D01*
X209150500Y-54215962D01*
X209150500Y-53964038D01*
X209111090Y-53715215D01*
X209033241Y-53475621D01*
X209033239Y-53475618D01*
X209033239Y-53475616D01*
X208966686Y-53345000D01*
X208918870Y-53251155D01*
X208823870Y-53120398D01*
X208770798Y-53047350D01*
X208770794Y-53047345D01*
X208631130Y-52907681D01*
X208597645Y-52846358D01*
X208602629Y-52776666D01*
X208631130Y-52732319D01*
X208770793Y-52592656D01*
X208918870Y-52388845D01*
X209033241Y-52164379D01*
X209111090Y-51924785D01*
X209150500Y-51675962D01*
X209150500Y-51424038D01*
X209111090Y-51175215D01*
X209033241Y-50935621D01*
X209033239Y-50935618D01*
X209033239Y-50935616D01*
X208966686Y-50805000D01*
X208918870Y-50711155D01*
X208823870Y-50580398D01*
X208770798Y-50507350D01*
X208770794Y-50507345D01*
X208631130Y-50367681D01*
X208597645Y-50306358D01*
X208602629Y-50236666D01*
X208631130Y-50192319D01*
X208770793Y-50052656D01*
X208918870Y-49848845D01*
X209033241Y-49624379D01*
X209111090Y-49384785D01*
X209150500Y-49135962D01*
X209150500Y-48884038D01*
X209111090Y-48635215D01*
X209033241Y-48395621D01*
X209033239Y-48395618D01*
X209033239Y-48395616D01*
X208966686Y-48265000D01*
X208918870Y-48171155D01*
X208823870Y-48040398D01*
X208770798Y-47967350D01*
X208770794Y-47967345D01*
X208631130Y-47827681D01*
X208597645Y-47766358D01*
X208602629Y-47696666D01*
X208631130Y-47652319D01*
X208770793Y-47512656D01*
X208918870Y-47308845D01*
X209033241Y-47084379D01*
X209111090Y-46844785D01*
X209150500Y-46595962D01*
X209150500Y-46344038D01*
X209111090Y-46095215D01*
X209033241Y-45855621D01*
X209033239Y-45855618D01*
X209033239Y-45855616D01*
X208991747Y-45774184D01*
X208918870Y-45631155D01*
X208896653Y-45600576D01*
X208850937Y-45537652D01*
X208827457Y-45471846D01*
X208843283Y-45403792D01*
X208863574Y-45377085D01*
X208992320Y-45248339D01*
X209084354Y-45099130D01*
X209084359Y-45099119D01*
X209139505Y-44932697D01*
X209149999Y-44829986D01*
X209150000Y-44829973D01*
X209150000Y-44180000D01*
X208040748Y-44180000D01*
X208062518Y-44142292D01*
X208100000Y-44002409D01*
X208100000Y-43857591D01*
X208062518Y-43717708D01*
X208040748Y-43680000D01*
X209149999Y-43680000D01*
X209149999Y-43030028D01*
X209149998Y-43030013D01*
X209139505Y-42927303D01*
X209139505Y-42927301D01*
X209084359Y-42760880D01*
X209084354Y-42760869D01*
X208992319Y-42611659D01*
X208992316Y-42611655D01*
X208868344Y-42487683D01*
X208868340Y-42487680D01*
X208719130Y-42395645D01*
X208719119Y-42395640D01*
X208552697Y-42340494D01*
X208449986Y-42330000D01*
X207800000Y-42330000D01*
X207800000Y-43439252D01*
X207762292Y-43417482D01*
X207622409Y-43380000D01*
X207477591Y-43380000D01*
X207337708Y-43417482D01*
X207300000Y-43439252D01*
X207300000Y-42330000D01*
X206650028Y-42330000D01*
X206650012Y-42330001D01*
X206547303Y-42340494D01*
X206547301Y-42340494D01*
X206380880Y-42395640D01*
X206380869Y-42395645D01*
X206231659Y-42487680D01*
X206231655Y-42487683D01*
X206107683Y-42611655D01*
X206107680Y-42611659D01*
X206015645Y-42760869D01*
X206015640Y-42760880D01*
X205960494Y-42927302D01*
X205950000Y-43030013D01*
X205950000Y-43680000D01*
X207059252Y-43680000D01*
X207037482Y-43717708D01*
X207000000Y-43857591D01*
X207000000Y-44002409D01*
X207037482Y-44142292D01*
X207059252Y-44180000D01*
X205950001Y-44180000D01*
X205950001Y-44829986D01*
X205960494Y-44932696D01*
X205960494Y-44932698D01*
X206015640Y-45099119D01*
X206015645Y-45099130D01*
X206107680Y-45248340D01*
X206107683Y-45248344D01*
X206236425Y-45377086D01*
X206251934Y-45405489D01*
X206268656Y-45433192D01*
X206268577Y-45435969D01*
X206269910Y-45438409D01*
X206267601Y-45470687D01*
X206266692Y-45503034D01*
X206265059Y-45506240D01*
X206264926Y-45508101D01*
X206251133Y-45534713D01*
X206250093Y-45536234D01*
X206181130Y-45631155D01*
X206169041Y-45654880D01*
X206164556Y-45661446D01*
X206143428Y-45678737D01*
X206124679Y-45698590D01*
X206116451Y-45700815D01*
X206110486Y-45705698D01*
X206089441Y-45708121D01*
X206062167Y-45715500D01*
X202510743Y-45715500D01*
X202443704Y-45695815D01*
X202405205Y-45656598D01*
X202392712Y-45636344D01*
X202268657Y-45512289D01*
X202268656Y-45512288D01*
X202175888Y-45455069D01*
X202119336Y-45420187D01*
X202119331Y-45420185D01*
X202069860Y-45403792D01*
X201952797Y-45365001D01*
X201952795Y-45365000D01*
X201850010Y-45354500D01*
X200449998Y-45354500D01*
X200449981Y-45354501D01*
X200347203Y-45365000D01*
X200347200Y-45365001D01*
X200180668Y-45420185D01*
X200180663Y-45420187D01*
X200031342Y-45512289D01*
X199904451Y-45639181D01*
X199843128Y-45672666D01*
X199816770Y-45675500D01*
X199133230Y-45675500D01*
X199066191Y-45655815D01*
X199045549Y-45639181D01*
X198918657Y-45512289D01*
X198918656Y-45512288D01*
X198825888Y-45455069D01*
X198769336Y-45420187D01*
X198769331Y-45420185D01*
X198719860Y-45403792D01*
X198602797Y-45365001D01*
X198602795Y-45365000D01*
X198500010Y-45354500D01*
X197099998Y-45354500D01*
X197099981Y-45354501D01*
X196997203Y-45365000D01*
X196997200Y-45365001D01*
X196830668Y-45420185D01*
X196830663Y-45420187D01*
X196681342Y-45512289D01*
X196554451Y-45639181D01*
X196493128Y-45672666D01*
X196466770Y-45675500D01*
X195783230Y-45675500D01*
X195716191Y-45655815D01*
X195695549Y-45639181D01*
X195568657Y-45512289D01*
X195568656Y-45512288D01*
X195475888Y-45455069D01*
X195419336Y-45420187D01*
X195419331Y-45420185D01*
X195369860Y-45403792D01*
X195252797Y-45365001D01*
X195252795Y-45365000D01*
X195150010Y-45354500D01*
X193749998Y-45354500D01*
X193749981Y-45354501D01*
X193647203Y-45365000D01*
X193647200Y-45365001D01*
X193480668Y-45420185D01*
X193480663Y-45420187D01*
X193331342Y-45512289D01*
X193274451Y-45569181D01*
X193213128Y-45602666D01*
X193186770Y-45605500D01*
X191893559Y-45605500D01*
X191858964Y-45600576D01*
X191727573Y-45562402D01*
X191727567Y-45562401D01*
X191690701Y-45559500D01*
X191690694Y-45559500D01*
X190224000Y-45559500D01*
X190156961Y-45539815D01*
X190111206Y-45487011D01*
X190100000Y-45435500D01*
X190100000Y-43854986D01*
X193050001Y-43854986D01*
X193060494Y-43957697D01*
X193115641Y-44124119D01*
X193115643Y-44124124D01*
X193207684Y-44273345D01*
X193331654Y-44397315D01*
X193480875Y-44489356D01*
X193480880Y-44489358D01*
X193647302Y-44544505D01*
X193647309Y-44544506D01*
X193750019Y-44554999D01*
X194199999Y-44554999D01*
X194700000Y-44554999D01*
X195149972Y-44554999D01*
X195149986Y-44554998D01*
X195252697Y-44544505D01*
X195419119Y-44489358D01*
X195419124Y-44489356D01*
X195568345Y-44397315D01*
X195692315Y-44273345D01*
X195784356Y-44124124D01*
X195784358Y-44124119D01*
X195839505Y-43957697D01*
X195839506Y-43957690D01*
X195849999Y-43854986D01*
X196400001Y-43854986D01*
X196410494Y-43957697D01*
X196465641Y-44124119D01*
X196465643Y-44124124D01*
X196557684Y-44273345D01*
X196681654Y-44397315D01*
X196830875Y-44489356D01*
X196830880Y-44489358D01*
X196997302Y-44544505D01*
X196997309Y-44544506D01*
X197100019Y-44554999D01*
X197549999Y-44554999D01*
X198050000Y-44554999D01*
X198499972Y-44554999D01*
X198499986Y-44554998D01*
X198602697Y-44544505D01*
X198769119Y-44489358D01*
X198769124Y-44489356D01*
X198918345Y-44397315D01*
X199042315Y-44273345D01*
X199134356Y-44124124D01*
X199134358Y-44124119D01*
X199189505Y-43957697D01*
X199189506Y-43957690D01*
X199199999Y-43854986D01*
X199750001Y-43854986D01*
X199760494Y-43957697D01*
X199815641Y-44124119D01*
X199815643Y-44124124D01*
X199907684Y-44273345D01*
X200031654Y-44397315D01*
X200180875Y-44489356D01*
X200180880Y-44489358D01*
X200347302Y-44544505D01*
X200347309Y-44544506D01*
X200450019Y-44554999D01*
X200899999Y-44554999D01*
X201400000Y-44554999D01*
X201849972Y-44554999D01*
X201849986Y-44554998D01*
X201952697Y-44544505D01*
X202119119Y-44489358D01*
X202119124Y-44489356D01*
X202268345Y-44397315D01*
X202392315Y-44273345D01*
X202484356Y-44124124D01*
X202484358Y-44124119D01*
X202539505Y-43957697D01*
X202539506Y-43957690D01*
X202549999Y-43854986D01*
X202550000Y-43854973D01*
X202550000Y-43730000D01*
X201400000Y-43730000D01*
X201400000Y-44554999D01*
X200899999Y-44554999D01*
X200900000Y-44554998D01*
X200900000Y-43730000D01*
X199750001Y-43730000D01*
X199750001Y-43854986D01*
X199199999Y-43854986D01*
X199200000Y-43854973D01*
X199200000Y-43730000D01*
X198050000Y-43730000D01*
X198050000Y-44554999D01*
X197549999Y-44554999D01*
X197550000Y-44554998D01*
X197550000Y-43730000D01*
X196400001Y-43730000D01*
X196400001Y-43854986D01*
X195849999Y-43854986D01*
X195850000Y-43854973D01*
X195850000Y-43730000D01*
X194700000Y-43730000D01*
X194700000Y-44554999D01*
X194199999Y-44554999D01*
X194200000Y-44554998D01*
X194200000Y-43730000D01*
X193050001Y-43730000D01*
X193050001Y-43854986D01*
X190100000Y-43854986D01*
X190100000Y-43105013D01*
X193050000Y-43105013D01*
X193050000Y-43230000D01*
X194200000Y-43230000D01*
X194700000Y-43230000D01*
X195849999Y-43230000D01*
X195849999Y-43105029D01*
X195849998Y-43105013D01*
X196400000Y-43105013D01*
X196400000Y-43230000D01*
X197550000Y-43230000D01*
X198050000Y-43230000D01*
X199199999Y-43230000D01*
X199199999Y-43105029D01*
X199199998Y-43105013D01*
X199750000Y-43105013D01*
X199750000Y-43230000D01*
X200900000Y-43230000D01*
X201400000Y-43230000D01*
X202549999Y-43230000D01*
X202549999Y-43105028D01*
X202549998Y-43105013D01*
X202543302Y-43039466D01*
X202543302Y-43039465D01*
X202539505Y-43002303D01*
X202484358Y-42835880D01*
X202484356Y-42835875D01*
X202392315Y-42686654D01*
X202268345Y-42562684D01*
X202119124Y-42470643D01*
X202119119Y-42470641D01*
X201952697Y-42415494D01*
X201952690Y-42415493D01*
X201849986Y-42405000D01*
X201400000Y-42405000D01*
X201400000Y-43230000D01*
X200900000Y-43230000D01*
X200900000Y-42405000D01*
X200450028Y-42405000D01*
X200450012Y-42405001D01*
X200347302Y-42415494D01*
X200180880Y-42470641D01*
X200180875Y-42470643D01*
X200031654Y-42562684D01*
X199907684Y-42686654D01*
X199815643Y-42835875D01*
X199815641Y-42835880D01*
X199760494Y-43002302D01*
X199760493Y-43002309D01*
X199750000Y-43105013D01*
X199199998Y-43105013D01*
X199199998Y-43105012D01*
X199189505Y-43002302D01*
X199134358Y-42835880D01*
X199134356Y-42835875D01*
X199042315Y-42686654D01*
X198918345Y-42562684D01*
X198769124Y-42470643D01*
X198769119Y-42470641D01*
X198602697Y-42415494D01*
X198602690Y-42415493D01*
X198499986Y-42405000D01*
X198050000Y-42405000D01*
X198050000Y-43230000D01*
X197550000Y-43230000D01*
X197550000Y-42405000D01*
X197100028Y-42405000D01*
X197100012Y-42405001D01*
X196997302Y-42415494D01*
X196830880Y-42470641D01*
X196830875Y-42470643D01*
X196681654Y-42562684D01*
X196557684Y-42686654D01*
X196465643Y-42835875D01*
X196465641Y-42835880D01*
X196410494Y-43002302D01*
X196410493Y-43002309D01*
X196400000Y-43105013D01*
X195849998Y-43105013D01*
X195849998Y-43105012D01*
X195839505Y-43002302D01*
X195784358Y-42835880D01*
X195784356Y-42835875D01*
X195692315Y-42686654D01*
X195568345Y-42562684D01*
X195419124Y-42470643D01*
X195419119Y-42470641D01*
X195252697Y-42415494D01*
X195252690Y-42415493D01*
X195149986Y-42405000D01*
X194700000Y-42405000D01*
X194700000Y-43230000D01*
X194200000Y-43230000D01*
X194200000Y-42405000D01*
X193750028Y-42405000D01*
X193750012Y-42405001D01*
X193647302Y-42415494D01*
X193480880Y-42470641D01*
X193480875Y-42470643D01*
X193331654Y-42562684D01*
X193207684Y-42686654D01*
X193115643Y-42835875D01*
X193115641Y-42835880D01*
X193060494Y-43002302D01*
X193060493Y-43002309D01*
X193050000Y-43105013D01*
X190100000Y-43105013D01*
X190100000Y-37624500D01*
X190119685Y-37557461D01*
X190172489Y-37511706D01*
X190224000Y-37500500D01*
X211976000Y-37500500D01*
X212043039Y-37520185D01*
G37*
%TD.AperFunction*%
%TD*%
%TA.AperFunction,Conductor*%
%TO.N,GND1*%
G36*
X182043039Y-37520185D02*
G01*
X182088794Y-37572989D01*
X182100000Y-37624500D01*
X182100000Y-45435500D01*
X182080315Y-45502539D01*
X182027511Y-45548294D01*
X181976000Y-45559500D01*
X181697538Y-45559500D01*
X181650085Y-45550061D01*
X181540080Y-45504495D01*
X181540072Y-45504493D01*
X181394316Y-45475500D01*
X181394312Y-45475500D01*
X179183230Y-45475500D01*
X179116191Y-45455815D01*
X179095549Y-45439181D01*
X178968657Y-45312289D01*
X178968656Y-45312288D01*
X178819334Y-45220186D01*
X178652797Y-45165001D01*
X178652795Y-45165000D01*
X178550010Y-45154500D01*
X177149998Y-45154500D01*
X177149981Y-45154501D01*
X177047203Y-45165000D01*
X177047200Y-45165001D01*
X176880668Y-45220185D01*
X176880663Y-45220187D01*
X176731342Y-45312289D01*
X176604451Y-45439181D01*
X176543128Y-45472666D01*
X176516770Y-45475500D01*
X175383230Y-45475500D01*
X175316191Y-45455815D01*
X175295549Y-45439181D01*
X175168657Y-45312289D01*
X175168656Y-45312288D01*
X175019334Y-45220186D01*
X174852797Y-45165001D01*
X174852795Y-45165000D01*
X174750010Y-45154500D01*
X173349998Y-45154500D01*
X173349981Y-45154501D01*
X173247203Y-45165000D01*
X173247200Y-45165001D01*
X173080668Y-45220185D01*
X173080663Y-45220187D01*
X172931342Y-45312289D01*
X172804451Y-45439181D01*
X172743128Y-45472666D01*
X172716770Y-45475500D01*
X171383230Y-45475500D01*
X171316191Y-45455815D01*
X171295549Y-45439181D01*
X171168657Y-45312289D01*
X171168656Y-45312288D01*
X171019334Y-45220186D01*
X170852797Y-45165001D01*
X170852795Y-45165000D01*
X170750010Y-45154500D01*
X169349998Y-45154500D01*
X169349981Y-45154501D01*
X169247203Y-45165000D01*
X169247200Y-45165001D01*
X169080668Y-45220185D01*
X169080663Y-45220187D01*
X169003482Y-45267793D01*
X168931344Y-45312288D01*
X168931342Y-45312289D01*
X168925197Y-45316080D01*
X168923697Y-45313649D01*
X168870993Y-45334908D01*
X168858887Y-45335500D01*
X164937833Y-45335500D01*
X164870794Y-45315815D01*
X164827347Y-45267793D01*
X164818867Y-45251150D01*
X164670798Y-45047350D01*
X164670794Y-45047345D01*
X164492654Y-44869205D01*
X164492649Y-44869201D01*
X164288846Y-44721130D01*
X164262979Y-44707950D01*
X164231594Y-44685147D01*
X163620234Y-44073787D01*
X163662292Y-44062518D01*
X163787708Y-43990110D01*
X163890110Y-43887708D01*
X163962518Y-43762292D01*
X163973787Y-43720235D01*
X164744250Y-44490698D01*
X164744250Y-44490697D01*
X164818442Y-44388581D01*
X164818446Y-44388575D01*
X164932780Y-44164184D01*
X165010602Y-43924669D01*
X165050000Y-43675928D01*
X165050000Y-43654986D01*
X168650001Y-43654986D01*
X168660494Y-43757697D01*
X168715641Y-43924119D01*
X168715643Y-43924124D01*
X168807684Y-44073345D01*
X168931654Y-44197315D01*
X169080875Y-44289356D01*
X169080880Y-44289358D01*
X169247302Y-44344505D01*
X169247309Y-44344506D01*
X169350019Y-44354999D01*
X169799999Y-44354999D01*
X170300000Y-44354999D01*
X170749972Y-44354999D01*
X170749986Y-44354998D01*
X170852697Y-44344505D01*
X171019119Y-44289358D01*
X171019124Y-44289356D01*
X171168345Y-44197315D01*
X171292315Y-44073345D01*
X171384356Y-43924124D01*
X171384358Y-43924119D01*
X171439505Y-43757697D01*
X171439506Y-43757690D01*
X171449999Y-43654986D01*
X172650001Y-43654986D01*
X172660494Y-43757697D01*
X172715641Y-43924119D01*
X172715643Y-43924124D01*
X172807684Y-44073345D01*
X172931654Y-44197315D01*
X173080875Y-44289356D01*
X173080880Y-44289358D01*
X173247302Y-44344505D01*
X173247309Y-44344506D01*
X173350019Y-44354999D01*
X173799999Y-44354999D01*
X174300000Y-44354999D01*
X174749972Y-44354999D01*
X174749986Y-44354998D01*
X174852697Y-44344505D01*
X175019119Y-44289358D01*
X175019124Y-44289356D01*
X175168345Y-44197315D01*
X175292315Y-44073345D01*
X175384356Y-43924124D01*
X175384358Y-43924119D01*
X175439505Y-43757697D01*
X175439506Y-43757690D01*
X175449999Y-43654986D01*
X176450001Y-43654986D01*
X176460494Y-43757697D01*
X176515641Y-43924119D01*
X176515643Y-43924124D01*
X176607684Y-44073345D01*
X176731654Y-44197315D01*
X176880875Y-44289356D01*
X176880880Y-44289358D01*
X177047302Y-44344505D01*
X177047309Y-44344506D01*
X177150019Y-44354999D01*
X177599999Y-44354999D01*
X178100000Y-44354999D01*
X178549972Y-44354999D01*
X178549986Y-44354998D01*
X178652697Y-44344505D01*
X178819119Y-44289358D01*
X178819124Y-44289356D01*
X178968345Y-44197315D01*
X179092315Y-44073345D01*
X179184356Y-43924124D01*
X179184358Y-43924119D01*
X179239505Y-43757697D01*
X179239506Y-43757690D01*
X179249999Y-43654986D01*
X179250000Y-43654973D01*
X179250000Y-43530000D01*
X178100000Y-43530000D01*
X178100000Y-44354999D01*
X177599999Y-44354999D01*
X177600000Y-44354998D01*
X177600000Y-43530000D01*
X176450001Y-43530000D01*
X176450001Y-43654986D01*
X175449999Y-43654986D01*
X175450000Y-43654973D01*
X175450000Y-43530000D01*
X174300000Y-43530000D01*
X174300000Y-44354999D01*
X173799999Y-44354999D01*
X173800000Y-44354998D01*
X173800000Y-43530000D01*
X172650001Y-43530000D01*
X172650001Y-43654986D01*
X171449999Y-43654986D01*
X171450000Y-43654973D01*
X171450000Y-43530000D01*
X170300000Y-43530000D01*
X170300000Y-44354999D01*
X169799999Y-44354999D01*
X169800000Y-44354998D01*
X169800000Y-43530000D01*
X168650001Y-43530000D01*
X168650001Y-43654986D01*
X165050000Y-43654986D01*
X165050000Y-43424071D01*
X165010602Y-43175330D01*
X164934199Y-42940182D01*
X164934198Y-42940181D01*
X164934198Y-42940179D01*
X164932780Y-42935815D01*
X164917085Y-42905013D01*
X168650000Y-42905013D01*
X168650000Y-43030000D01*
X169800000Y-43030000D01*
X170300000Y-43030000D01*
X171449999Y-43030000D01*
X171449999Y-42905029D01*
X171449998Y-42905013D01*
X172650000Y-42905013D01*
X172650000Y-43030000D01*
X173800000Y-43030000D01*
X174300000Y-43030000D01*
X175449999Y-43030000D01*
X175449999Y-42905029D01*
X175449998Y-42905013D01*
X176450000Y-42905013D01*
X176450000Y-43030000D01*
X177600000Y-43030000D01*
X178100000Y-43030000D01*
X179249999Y-43030000D01*
X179249999Y-42905028D01*
X179249998Y-42905013D01*
X179239505Y-42802302D01*
X179184358Y-42635880D01*
X179184356Y-42635875D01*
X179092315Y-42486654D01*
X178968345Y-42362684D01*
X178819124Y-42270643D01*
X178819119Y-42270641D01*
X178652697Y-42215494D01*
X178652690Y-42215493D01*
X178549986Y-42205000D01*
X178100000Y-42205000D01*
X178100000Y-43030000D01*
X177600000Y-43030000D01*
X177600000Y-42205000D01*
X177150028Y-42205000D01*
X177150012Y-42205001D01*
X177047302Y-42215494D01*
X176880880Y-42270641D01*
X176880875Y-42270643D01*
X176731654Y-42362684D01*
X176607684Y-42486654D01*
X176515643Y-42635875D01*
X176515641Y-42635880D01*
X176460494Y-42802302D01*
X176460493Y-42802309D01*
X176450000Y-42905013D01*
X175449998Y-42905013D01*
X175449998Y-42905012D01*
X175439505Y-42802302D01*
X175384358Y-42635880D01*
X175384356Y-42635875D01*
X175292315Y-42486654D01*
X175168345Y-42362684D01*
X175019124Y-42270643D01*
X175019119Y-42270641D01*
X174852697Y-42215494D01*
X174852690Y-42215493D01*
X174749986Y-42205000D01*
X174300000Y-42205000D01*
X174300000Y-43030000D01*
X173800000Y-43030000D01*
X173800000Y-42205000D01*
X173350028Y-42205000D01*
X173350012Y-42205001D01*
X173247302Y-42215494D01*
X173080880Y-42270641D01*
X173080875Y-42270643D01*
X172931654Y-42362684D01*
X172807684Y-42486654D01*
X172715643Y-42635875D01*
X172715641Y-42635880D01*
X172660494Y-42802302D01*
X172660493Y-42802309D01*
X172650000Y-42905013D01*
X171449998Y-42905013D01*
X171449998Y-42905012D01*
X171439505Y-42802302D01*
X171384358Y-42635880D01*
X171384356Y-42635875D01*
X171292315Y-42486654D01*
X171168345Y-42362684D01*
X171019124Y-42270643D01*
X171019119Y-42270641D01*
X170852697Y-42215494D01*
X170852690Y-42215493D01*
X170749986Y-42205000D01*
X170300000Y-42205000D01*
X170300000Y-43030000D01*
X169800000Y-43030000D01*
X169800000Y-42205000D01*
X169350028Y-42205000D01*
X169350012Y-42205001D01*
X169247302Y-42215494D01*
X169080880Y-42270641D01*
X169080875Y-42270643D01*
X168931654Y-42362684D01*
X168807684Y-42486654D01*
X168715643Y-42635875D01*
X168715641Y-42635880D01*
X168660494Y-42802302D01*
X168660493Y-42802309D01*
X168650000Y-42905013D01*
X164917085Y-42905013D01*
X164818442Y-42711416D01*
X164744250Y-42609301D01*
X164744250Y-42609300D01*
X163973787Y-43379764D01*
X163962518Y-43337708D01*
X163890110Y-43212292D01*
X163787708Y-43109890D01*
X163662292Y-43037482D01*
X163620232Y-43026212D01*
X164390698Y-42255748D01*
X164288583Y-42181557D01*
X164064184Y-42067219D01*
X163824669Y-41989397D01*
X163575928Y-41950000D01*
X163324072Y-41950000D01*
X163075330Y-41989397D01*
X162835815Y-42067219D01*
X162611413Y-42181559D01*
X162509301Y-42255747D01*
X162509300Y-42255748D01*
X163279765Y-43026212D01*
X163237708Y-43037482D01*
X163112292Y-43109890D01*
X163009890Y-43212292D01*
X162937482Y-43337708D01*
X162926212Y-43379765D01*
X162155748Y-42609300D01*
X162155747Y-42609301D01*
X162081559Y-42711413D01*
X161967219Y-42935815D01*
X161889397Y-43175330D01*
X161850000Y-43424071D01*
X161850000Y-43675928D01*
X161889397Y-43924669D01*
X161967219Y-44164184D01*
X162081557Y-44388583D01*
X162155748Y-44490697D01*
X162155748Y-44490698D01*
X162926212Y-43720234D01*
X162937482Y-43762292D01*
X163009890Y-43887708D01*
X163112292Y-43990110D01*
X163237708Y-44062518D01*
X163279765Y-44073787D01*
X162668404Y-44685147D01*
X162637023Y-44707948D01*
X162611152Y-44721131D01*
X162407350Y-44869201D01*
X162407345Y-44869205D01*
X162229205Y-45047345D01*
X162229201Y-45047350D01*
X162081132Y-45251151D01*
X161966760Y-45475616D01*
X161888910Y-45715214D01*
X161849500Y-45964038D01*
X161849500Y-46215961D01*
X161888910Y-46464785D01*
X161966760Y-46704383D01*
X162000397Y-46770398D01*
X162072478Y-46911865D01*
X162081132Y-46928848D01*
X162229201Y-47132649D01*
X162229205Y-47132654D01*
X162368870Y-47272319D01*
X162402355Y-47333642D01*
X162397371Y-47403334D01*
X162368870Y-47447681D01*
X162229205Y-47587345D01*
X162229201Y-47587350D01*
X162081132Y-47791151D01*
X161966760Y-48015616D01*
X161888910Y-48255214D01*
X161849500Y-48504038D01*
X161849500Y-48755961D01*
X161888910Y-49004785D01*
X161966760Y-49244383D01*
X162023380Y-49355505D01*
X162072478Y-49451865D01*
X162081132Y-49468848D01*
X162229201Y-49672649D01*
X162229205Y-49672654D01*
X162368870Y-49812319D01*
X162402355Y-49873642D01*
X162397371Y-49943334D01*
X162368870Y-49987681D01*
X162229205Y-50127345D01*
X162229201Y-50127350D01*
X162081132Y-50331151D01*
X161966760Y-50555616D01*
X161888910Y-50795214D01*
X161849500Y-51044038D01*
X161849500Y-51295961D01*
X161888910Y-51544785D01*
X161966760Y-51784383D01*
X162023380Y-51895505D01*
X162072478Y-51991865D01*
X162081132Y-52008848D01*
X162229201Y-52212649D01*
X162229205Y-52212654D01*
X162368870Y-52352319D01*
X162402355Y-52413642D01*
X162397371Y-52483334D01*
X162368870Y-52527681D01*
X162229205Y-52667345D01*
X162229201Y-52667350D01*
X162081132Y-52871151D01*
X161966760Y-53095616D01*
X161888910Y-53335214D01*
X161849500Y-53584038D01*
X161849500Y-53835961D01*
X161888910Y-54084785D01*
X161966760Y-54324383D01*
X162023380Y-54435505D01*
X162072478Y-54531865D01*
X162081132Y-54548848D01*
X162229201Y-54752649D01*
X162229205Y-54752654D01*
X162368870Y-54892319D01*
X162402355Y-54953642D01*
X162397371Y-55023334D01*
X162368870Y-55067681D01*
X162229205Y-55207345D01*
X162229201Y-55207350D01*
X162081132Y-55411151D01*
X161966760Y-55635616D01*
X161888910Y-55875214D01*
X161849500Y-56124038D01*
X161849500Y-56375961D01*
X161888910Y-56624785D01*
X161966760Y-56864383D01*
X162081132Y-57088848D01*
X162229201Y-57292649D01*
X162229205Y-57292654D01*
X162368870Y-57432319D01*
X162402355Y-57493642D01*
X162397371Y-57563334D01*
X162368870Y-57607681D01*
X162229205Y-57747345D01*
X162229201Y-57747350D01*
X162081132Y-57951151D01*
X161966760Y-58175616D01*
X161888910Y-58415214D01*
X161849500Y-58664038D01*
X161849500Y-58915961D01*
X161888910Y-59164785D01*
X161966760Y-59404383D01*
X162081132Y-59628848D01*
X162148764Y-59721937D01*
X162172244Y-59787743D01*
X162156418Y-59855797D01*
X162136128Y-59882503D01*
X162007287Y-60011345D01*
X161915187Y-60160662D01*
X161915186Y-60160665D01*
X161860001Y-60327202D01*
X161860001Y-60327203D01*
X161860000Y-60327203D01*
X161849500Y-60429982D01*
X161849500Y-62230017D01*
X161860000Y-62332796D01*
X161860001Y-62332798D01*
X161915186Y-62499335D01*
X162007288Y-62648656D01*
X162131344Y-62772712D01*
X162280665Y-62864814D01*
X162447202Y-62919999D01*
X162549990Y-62930500D01*
X162549995Y-62930500D01*
X164350005Y-62930500D01*
X164350010Y-62930500D01*
X164452798Y-62919999D01*
X164619335Y-62864814D01*
X164768656Y-62772712D01*
X164892712Y-62648656D01*
X164984814Y-62499335D01*
X165039999Y-62332798D01*
X165050500Y-62230010D01*
X165050500Y-62208500D01*
X165070185Y-62141461D01*
X165122989Y-62095706D01*
X165174500Y-62084500D01*
X166469554Y-62084500D01*
X166469574Y-62084501D01*
X166475688Y-62084501D01*
X166624314Y-62084501D01*
X166661009Y-62077200D01*
X166745894Y-62060315D01*
X166770080Y-62055505D01*
X166826955Y-62031946D01*
X166907389Y-61998630D01*
X167030966Y-61916059D01*
X173447022Y-55500001D01*
X179927704Y-55500001D01*
X179927899Y-55502486D01*
X179973718Y-55660198D01*
X180057314Y-55801552D01*
X180057321Y-55801561D01*
X180173438Y-55917678D01*
X180173447Y-55917685D01*
X180314803Y-56001282D01*
X180314806Y-56001283D01*
X180472504Y-56047099D01*
X180472510Y-56047100D01*
X180509350Y-56049999D01*
X180509366Y-56050000D01*
X181200000Y-56050000D01*
X181200000Y-55500000D01*
X179927705Y-55500000D01*
X179927704Y-55500001D01*
X173447022Y-55500001D01*
X174176205Y-54770818D01*
X174237528Y-54737334D01*
X174263886Y-54734500D01*
X179839159Y-54734500D01*
X179906198Y-54754185D01*
X179951953Y-54806989D01*
X179961897Y-54876147D01*
X179958235Y-54893095D01*
X179927900Y-54997505D01*
X179927899Y-54997511D01*
X179927704Y-54999998D01*
X179927705Y-55000000D01*
X181326000Y-55000000D01*
X181393039Y-55019685D01*
X181438794Y-55072489D01*
X181450000Y-55124000D01*
X181450000Y-55250000D01*
X181576000Y-55250000D01*
X181643039Y-55269685D01*
X181688794Y-55322489D01*
X181700000Y-55374000D01*
X181700000Y-56050000D01*
X181976000Y-56050000D01*
X182043039Y-56069685D01*
X182088794Y-56122489D01*
X182100000Y-56174000D01*
X182100000Y-67181000D01*
X182080315Y-67248039D01*
X182027511Y-67293794D01*
X181976000Y-67305000D01*
X157224000Y-67305000D01*
X157156961Y-67285315D01*
X157111206Y-67232511D01*
X157100000Y-67181000D01*
X157100000Y-59805000D01*
X149724000Y-59805000D01*
X149656961Y-59785315D01*
X149611206Y-59732511D01*
X149600000Y-59681000D01*
X149600000Y-44929000D01*
X149619685Y-44861961D01*
X149672489Y-44816206D01*
X149724000Y-44805000D01*
X157600000Y-44805000D01*
X157600000Y-37624500D01*
X157619685Y-37557461D01*
X157672489Y-37511706D01*
X157724000Y-37500500D01*
X181976000Y-37500500D01*
X182043039Y-37520185D01*
G37*
%TD.AperFunction*%
%TD*%
M02*
